%TF.GenerationSoftware,KiCad,Pcbnew,9.0.4*%
%TF.CreationDate,2026-03-30T01:34:36+02:00*%
%TF.ProjectId,SmartCar_Etudiant,536d6172-7443-4617-925f-457475646961,V1*%
%TF.SameCoordinates,Original*%
%TF.FileFunction,Soldermask,Bot*%
%TF.FilePolarity,Negative*%
%FSLAX46Y46*%
G04 Gerber Fmt 4.6, Leading zero omitted, Abs format (unit mm)*
G04 Created by KiCad (PCBNEW 9.0.4) date 2026-03-30 01:34:36*
%MOMM*%
%LPD*%
G01*
G04 APERTURE LIST*
G04 Aperture macros list*
%AMRoundRect*
0 Rectangle with rounded corners*
0 $1 Rounding radius*
0 $2 $3 $4 $5 $6 $7 $8 $9 X,Y pos of 4 corners*
0 Add a 4 corners polygon primitive as box body*
4,1,4,$2,$3,$4,$5,$6,$7,$8,$9,$2,$3,0*
0 Add four circle primitives for the rounded corners*
1,1,$1+$1,$2,$3*
1,1,$1+$1,$4,$5*
1,1,$1+$1,$6,$7*
1,1,$1+$1,$8,$9*
0 Add four rect primitives between the rounded corners*
20,1,$1+$1,$2,$3,$4,$5,0*
20,1,$1+$1,$4,$5,$6,$7,0*
20,1,$1+$1,$6,$7,$8,$9,0*
20,1,$1+$1,$8,$9,$2,$3,0*%
%AMOutline5P*
0 Free polygon, 5 corners , with rotation*
0 The origin of the aperture is its center*
0 number of corners: always 5*
0 $1 to $10 corner X, Y*
0 $11 Rotation angle, in degrees counterclockwise*
0 create outline with 5 corners*
4,1,5,$1,$2,$3,$4,$5,$6,$7,$8,$9,$10,$1,$2,$11*%
%AMOutline6P*
0 Free polygon, 6 corners , with rotation*
0 The origin of the aperture is its center*
0 number of corners: always 6*
0 $1 to $12 corner X, Y*
0 $13 Rotation angle, in degrees counterclockwise*
0 create outline with 6 corners*
4,1,6,$1,$2,$3,$4,$5,$6,$7,$8,$9,$10,$11,$12,$1,$2,$13*%
%AMOutline7P*
0 Free polygon, 7 corners , with rotation*
0 The origin of the aperture is its center*
0 number of corners: always 7*
0 $1 to $14 corner X, Y*
0 $15 Rotation angle, in degrees counterclockwise*
0 create outline with 7 corners*
4,1,7,$1,$2,$3,$4,$5,$6,$7,$8,$9,$10,$11,$12,$13,$14,$1,$2,$15*%
%AMOutline8P*
0 Free polygon, 8 corners , with rotation*
0 The origin of the aperture is its center*
0 number of corners: always 8*
0 $1 to $16 corner X, Y*
0 $17 Rotation angle, in degrees counterclockwise*
0 create outline with 8 corners*
4,1,8,$1,$2,$3,$4,$5,$6,$7,$8,$9,$10,$11,$12,$13,$14,$15,$16,$1,$2,$17*%
G04 Aperture macros list end*
%ADD10R,3.048000X3.048000*%
%ADD11R,1.800000X1.800000*%
%ADD12C,1.800000*%
%ADD13RoundRect,0.102000X-0.754000X-0.754000X0.754000X-0.754000X0.754000X0.754000X-0.754000X0.754000X0*%
%ADD14C,1.712000*%
%ADD15C,1.400000*%
%ADD16RoundRect,0.250000X0.845000X-0.620000X0.845000X0.620000X-0.845000X0.620000X-0.845000X-0.620000X0*%
%ADD17O,2.190000X1.740000*%
%ADD18R,1.700000X1.700000*%
%ADD19C,1.700000*%
%ADD20C,1.600000*%
%ADD21C,2.834000*%
%ADD22RoundRect,0.250000X0.620000X0.845000X-0.620000X0.845000X-0.620000X-0.845000X0.620000X-0.845000X0*%
%ADD23O,1.740000X2.190000*%
%ADD24RoundRect,0.250000X-0.845000X0.620000X-0.845000X-0.620000X0.845000X-0.620000X0.845000X0.620000X0*%
%ADD25O,1.600000X1.200000*%
%ADD26C,1.200000*%
%ADD27RoundRect,0.250000X-0.620000X-0.845000X0.620000X-0.845000X0.620000X0.845000X-0.620000X0.845000X0*%
%ADD28C,3.600000*%
%ADD29Outline8P,-0.952500X0.381000X-0.698500X0.635000X0.698500X0.635000X0.952500X0.381000X0.952500X-0.381000X0.698500X-0.635000X-0.698500X-0.635000X-0.952500X-0.381000X180.000000*%
G04 APERTURE END LIST*
D10*
%TO.C,RPOT3*%
X74960000Y-118340000D03*
X77500000Y-128500000D03*
X80040000Y-118340000D03*
%TD*%
D11*
%TO.C,LED3*%
X46482000Y-121666000D03*
D12*
X49022000Y-121666000D03*
%TD*%
D13*
%TO.C,BP1*%
X71478000Y-165090500D03*
D14*
X77978000Y-165090500D03*
X71478000Y-169590500D03*
X77978000Y-169590500D03*
%TD*%
D15*
%TO.C,R11*%
X94742000Y-134366000D03*
X102362000Y-134366000D03*
%TD*%
D10*
%TO.C,RV1*%
X106934000Y-140447900D03*
X109474000Y-150607900D03*
X112014000Y-140447900D03*
%TD*%
D16*
%TO.C,CON1*%
X140462000Y-145288000D03*
D17*
X140462000Y-142748000D03*
X140462000Y-140208000D03*
%TD*%
D18*
%TO.C,JP2*%
X121158000Y-123698000D03*
D19*
X121158000Y-121158000D03*
X121158000Y-118618000D03*
%TD*%
D20*
%TO.C,C3*%
X131318000Y-130850000D03*
X131318000Y-135850000D03*
%TD*%
D21*
%TO.C,TP7*%
X47500000Y-143500000D03*
%TD*%
D18*
%TO.C,JP1*%
X116967000Y-126365000D03*
D19*
X116967000Y-123825000D03*
X116967000Y-121285000D03*
%TD*%
D18*
%TO.C,JP5*%
X56896000Y-129500000D03*
D19*
X59436000Y-129500000D03*
X61976000Y-129500000D03*
%TD*%
D22*
%TO.C,CON9*%
X105156000Y-100457000D03*
D23*
X102616000Y-100457000D03*
X100076000Y-100457000D03*
X97536000Y-100457000D03*
%TD*%
D15*
%TO.C,R19*%
X86190000Y-118500000D03*
X93810000Y-118500000D03*
%TD*%
D21*
%TO.C,TP6*%
X99568000Y-154940000D03*
%TD*%
D15*
%TO.C,R9*%
X109000000Y-135500000D03*
X116620000Y-135500000D03*
%TD*%
D18*
%TO.C,JP3*%
X70104000Y-160528000D03*
D19*
X72644000Y-160528000D03*
%TD*%
D21*
%TO.C,TP2*%
X139954000Y-128778000D03*
%TD*%
D16*
%TO.C,CON6*%
X136652000Y-115824000D03*
D17*
X136652000Y-113284000D03*
%TD*%
D15*
%TO.C,R17*%
X110810000Y-115000000D03*
X103190000Y-115000000D03*
%TD*%
D21*
%TO.C,TP4*%
X83058000Y-135128000D03*
%TD*%
D24*
%TO.C,CON10*%
X47421800Y-130810000D03*
D17*
X47421800Y-133350000D03*
X47421800Y-135890000D03*
%TD*%
D15*
%TO.C,R13*%
X80264000Y-148590000D03*
X80264000Y-140970000D03*
%TD*%
D21*
%TO.C,TP16*%
X128500000Y-123000000D03*
%TD*%
D11*
%TO.C,LED2*%
X117602000Y-156972000D03*
D12*
X120142000Y-156972000D03*
%TD*%
D15*
%TO.C,R18*%
X89154000Y-130810000D03*
X81534000Y-130810000D03*
%TD*%
%TO.C,R15*%
X113792000Y-156464000D03*
X106172000Y-156464000D03*
%TD*%
D18*
%TO.C,JP4*%
X56896000Y-133056000D03*
D19*
X59436000Y-133056000D03*
X61976000Y-133056000D03*
%TD*%
D24*
%TO.C,CON5*%
X51288000Y-104389000D03*
D17*
X51288000Y-106929000D03*
%TD*%
D18*
%TO.C,J6*%
X94690000Y-111740000D03*
D19*
X97230000Y-111740000D03*
X99770000Y-111740000D03*
X102310000Y-111740000D03*
X104850000Y-111740000D03*
X107390000Y-111740000D03*
X109930000Y-111740000D03*
X112470000Y-111740000D03*
%TD*%
D15*
%TO.C,R12*%
X102870000Y-150876000D03*
X102870000Y-143256000D03*
%TD*%
D21*
%TO.C,TP12*%
X74500000Y-138500000D03*
%TD*%
D25*
%TO.C,Q2*%
X129761961Y-106139961D03*
D26*
X131031961Y-107409961D03*
X132301961Y-106139961D03*
%TD*%
D21*
%TO.C,TP18*%
X117729000Y-142875000D03*
%TD*%
%TO.C,TP5*%
X78740000Y-153162000D03*
%TD*%
%TO.C,TP1*%
X139954000Y-123952000D03*
%TD*%
D18*
%TO.C,JP6*%
X56896000Y-125944000D03*
D19*
X59436000Y-125944000D03*
X61976000Y-125944000D03*
%TD*%
D15*
%TO.C,R8*%
X108880000Y-133000000D03*
X116500000Y-133000000D03*
%TD*%
D10*
%TO.C,RPOT1*%
X84578956Y-140716000D03*
X87118956Y-150876000D03*
X89658956Y-140716000D03*
%TD*%
D21*
%TO.C,TP3*%
X139954000Y-133604000D03*
%TD*%
D27*
%TO.C,CON3*%
X92202000Y-165354000D03*
D23*
X94742000Y-165354000D03*
%TD*%
D22*
%TO.C,CON8*%
X122682000Y-100457000D03*
D23*
X120142000Y-100457000D03*
X117602000Y-100457000D03*
%TD*%
D15*
%TO.C,R16*%
X90190000Y-116000000D03*
X97810000Y-116000000D03*
%TD*%
D22*
%TO.C,CON7*%
X77724000Y-100584000D03*
D23*
X75184000Y-100584000D03*
X72644000Y-100584000D03*
X70104000Y-100584000D03*
X67564000Y-100584000D03*
%TD*%
D21*
%TO.C,TP13*%
X76500000Y-132500000D03*
%TD*%
D18*
%TO.C,J7*%
X67770000Y-111740000D03*
D19*
X70310000Y-111740000D03*
X72850000Y-111740000D03*
X75390000Y-111740000D03*
X77930000Y-111740000D03*
X80470000Y-111740000D03*
X83010000Y-111740000D03*
X85550000Y-111740000D03*
X88090000Y-111740000D03*
X90630000Y-111740000D03*
%TD*%
D18*
%TO.C,J4*%
X112460000Y-160000000D03*
D19*
X109920000Y-160000000D03*
X107380000Y-160000000D03*
X104840000Y-160000000D03*
X102300000Y-160000000D03*
X99760000Y-160000000D03*
%TD*%
D15*
%TO.C,R14*%
X89662000Y-137160000D03*
X97282000Y-137160000D03*
%TD*%
D10*
%TO.C,RPOT2*%
X104920000Y-118447900D03*
X107460000Y-128607900D03*
X110000000Y-118447900D03*
%TD*%
D13*
%TO.C,CONN2*%
X57912000Y-163322000D03*
D14*
X55412000Y-163322000D03*
X55412000Y-165322000D03*
X57912000Y-165322000D03*
D28*
X50642000Y-168032000D03*
X62682000Y-168032000D03*
%TD*%
D11*
%TO.C,LED4*%
X46482000Y-112776000D03*
D12*
X49022000Y-112776000D03*
%TD*%
D21*
%TO.C,TP9*%
X96266000Y-154940000D03*
%TD*%
D29*
%TO.C,U4*%
X128524000Y-135636000D03*
X128524000Y-133096000D03*
X128524000Y-130556000D03*
X128524000Y-128016000D03*
X120714000Y-128016000D03*
X120714000Y-130556000D03*
X120714000Y-133096000D03*
X120714000Y-135636000D03*
%TD*%
D20*
%TO.C,LDR1*%
X136652000Y-156464000D03*
X136652000Y-159064000D03*
X136652000Y-161564000D03*
X136652000Y-164164000D03*
%TD*%
D18*
%TO.C,J5*%
X94700000Y-160000000D03*
D19*
X92160000Y-160000000D03*
X89620000Y-160000000D03*
X87080000Y-160000000D03*
X84540000Y-160000000D03*
X82000000Y-160000000D03*
X79460000Y-160000000D03*
X76920000Y-160000000D03*
%TD*%
M02*
