%TF.GenerationSoftware,KiCad,Pcbnew,9.0.4*%
%TF.CreationDate,2026-03-30T01:34:35+02:00*%
%TF.ProjectId,SmartCar_Etudiant,536d6172-7443-4617-925f-457475646961,V1*%
%TF.SameCoordinates,Original*%
%TF.FileFunction,Paste,Top*%
%TF.FilePolarity,Positive*%
%FSLAX46Y46*%
G04 Gerber Fmt 4.6, Leading zero omitted, Abs format (unit mm)*
G04 Created by KiCad (PCBNEW 9.0.4) date 2026-03-30 01:34:35*
%MOMM*%
%LPD*%
G01*
G04 APERTURE LIST*
G04 Aperture macros list*
%AMRoundRect*
0 Rectangle with rounded corners*
0 $1 Rounding radius*
0 $2 $3 $4 $5 $6 $7 $8 $9 X,Y pos of 4 corners*
0 Add a 4 corners polygon primitive as box body*
4,1,4,$2,$3,$4,$5,$6,$7,$8,$9,$2,$3,0*
0 Add four circle primitives for the rounded corners*
1,1,$1+$1,$2,$3*
1,1,$1+$1,$4,$5*
1,1,$1+$1,$6,$7*
1,1,$1+$1,$8,$9*
0 Add four rect primitives between the rounded corners*
20,1,$1+$1,$2,$3,$4,$5,0*
20,1,$1+$1,$4,$5,$6,$7,0*
20,1,$1+$1,$6,$7,$8,$9,0*
20,1,$1+$1,$8,$9,$2,$3,0*%
G04 Aperture macros list end*
%ADD10RoundRect,0.150000X0.150000X-0.725000X0.150000X0.725000X-0.150000X0.725000X-0.150000X-0.725000X0*%
%ADD11RoundRect,0.250000X-0.325000X-0.650000X0.325000X-0.650000X0.325000X0.650000X-0.325000X0.650000X0*%
%ADD12RoundRect,0.250000X0.650000X-0.325000X0.650000X0.325000X-0.650000X0.325000X-0.650000X-0.325000X0*%
%ADD13RoundRect,0.250000X-0.400000X-0.625000X0.400000X-0.625000X0.400000X0.625000X-0.400000X0.625000X0*%
%ADD14RoundRect,0.250000X0.625000X-0.400000X0.625000X0.400000X-0.625000X0.400000X-0.625000X-0.400000X0*%
%ADD15RoundRect,0.250000X-0.650000X0.325000X-0.650000X-0.325000X0.650000X-0.325000X0.650000X0.325000X0*%
%ADD16RoundRect,0.250000X0.400000X0.625000X-0.400000X0.625000X-0.400000X-0.625000X0.400000X-0.625000X0*%
%ADD17R,3.000000X1.600000*%
%ADD18RoundRect,0.300000X-0.300000X-0.300000X0.300000X-0.300000X0.300000X0.300000X-0.300000X0.300000X0*%
%ADD19RoundRect,0.250000X-0.625000X0.400000X-0.625000X-0.400000X0.625000X-0.400000X0.625000X0.400000X0*%
%ADD20RoundRect,0.250000X0.625000X-0.375000X0.625000X0.375000X-0.625000X0.375000X-0.625000X-0.375000X0*%
%ADD21RoundRect,0.250000X0.325000X0.650000X-0.325000X0.650000X-0.325000X-0.650000X0.325000X-0.650000X0*%
%ADD22RoundRect,0.150000X0.725000X0.150000X-0.725000X0.150000X-0.725000X-0.150000X0.725000X-0.150000X0*%
%ADD23RoundRect,0.150000X-0.587500X-0.150000X0.587500X-0.150000X0.587500X0.150000X-0.587500X0.150000X0*%
G04 APERTURE END LIST*
D10*
%TO.C,U3*%
X96595000Y-148100000D03*
X97865000Y-148100000D03*
X99135000Y-148100000D03*
X100405000Y-148100000D03*
X100405000Y-142950000D03*
X99135000Y-142950000D03*
X97865000Y-142950000D03*
X96595000Y-142950000D03*
%TD*%
D11*
%TO.C,C9*%
X90727000Y-152146000D03*
X93677000Y-152146000D03*
%TD*%
D12*
%TO.C,C4*%
X140081000Y-102859500D03*
X140081000Y-99909500D03*
%TD*%
D13*
%TO.C,R21*%
X52298000Y-115824000D03*
X55398000Y-115824000D03*
%TD*%
D10*
%TO.C,U2*%
X90460000Y-126000000D03*
X91730000Y-126000000D03*
X93000000Y-126000000D03*
X94270000Y-126000000D03*
X94270000Y-120850000D03*
X93000000Y-120850000D03*
X91730000Y-120850000D03*
X90460000Y-120850000D03*
%TD*%
D14*
%TO.C,R22*%
X46990000Y-158522000D03*
X46990000Y-155422000D03*
%TD*%
%TO.C,R40*%
X124232000Y-171730000D03*
X124232000Y-168630000D03*
%TD*%
D13*
%TO.C,R5*%
X57450000Y-113000000D03*
X60550000Y-113000000D03*
%TD*%
D15*
%TO.C,C8*%
X134874000Y-141322000D03*
X134874000Y-144272000D03*
%TD*%
D13*
%TO.C,R24*%
X109425000Y-153750000D03*
X112525000Y-153750000D03*
%TD*%
D16*
%TO.C,R2*%
X132106000Y-111125000D03*
X129006000Y-111125000D03*
%TD*%
D17*
%TO.C,C18*%
X53172000Y-157734000D03*
X57572000Y-157734000D03*
%TD*%
D15*
%TO.C,C23*%
X129500000Y-161025000D03*
X129500000Y-163975000D03*
%TD*%
D18*
%TO.C,D3*%
X132336000Y-152908000D03*
X135636000Y-152908000D03*
%TD*%
D11*
%TO.C,C15*%
X66550000Y-134000000D03*
X69500000Y-134000000D03*
%TD*%
D19*
%TO.C,R30*%
X70612000Y-151358000D03*
X70612000Y-154458000D03*
%TD*%
D11*
%TO.C,C2*%
X47394600Y-139395200D03*
X50344600Y-139395200D03*
%TD*%
D10*
%TO.C,U1*%
X73095000Y-148175000D03*
X74365000Y-148175000D03*
X75635000Y-148175000D03*
X76905000Y-148175000D03*
X76905000Y-143025000D03*
X75635000Y-143025000D03*
X74365000Y-143025000D03*
X73095000Y-143025000D03*
%TD*%
D20*
%TO.C,LED1*%
X46990000Y-163706000D03*
X46990000Y-160906000D03*
%TD*%
D16*
%TO.C,R4*%
X120782000Y-170180000D03*
X117682000Y-170180000D03*
%TD*%
D15*
%TO.C,C21*%
X73000000Y-151500000D03*
X73000000Y-154450000D03*
%TD*%
%TO.C,C1*%
X52070000Y-133094200D03*
X52070000Y-136044200D03*
%TD*%
D16*
%TO.C,R3*%
X114834000Y-167132000D03*
X111734000Y-167132000D03*
%TD*%
D15*
%TO.C,C13*%
X94500000Y-144125000D03*
X94500000Y-147075000D03*
%TD*%
%TO.C,C5*%
X80518000Y-166214000D03*
X80518000Y-169164000D03*
%TD*%
D11*
%TO.C,C19*%
X55118000Y-149352000D03*
X58068000Y-149352000D03*
%TD*%
D13*
%TO.C,R7*%
X124450000Y-157000000D03*
X127550000Y-157000000D03*
%TD*%
D14*
%TO.C,R25*%
X75500000Y-154458000D03*
X75500000Y-151358000D03*
%TD*%
D21*
%TO.C,C10*%
X100475000Y-128500000D03*
X97525000Y-128500000D03*
%TD*%
D16*
%TO.C,R23*%
X52604000Y-149352000D03*
X49504000Y-149352000D03*
%TD*%
D15*
%TO.C,C12*%
X88365000Y-121950000D03*
X88365000Y-124900000D03*
%TD*%
D22*
%TO.C,U5*%
X70750000Y-131900000D03*
X70750000Y-130630000D03*
X70750000Y-129360000D03*
X70750000Y-128090000D03*
X65600000Y-128090000D03*
X65600000Y-129360000D03*
X65600000Y-130630000D03*
X65600000Y-131900000D03*
%TD*%
D13*
%TO.C,R20*%
X52298000Y-118618000D03*
X55398000Y-118618000D03*
%TD*%
D12*
%TO.C,C6*%
X132384800Y-144272000D03*
X132384800Y-141322000D03*
%TD*%
D18*
%TO.C,D2*%
X111762000Y-170180000D03*
X115062000Y-170180000D03*
%TD*%
D23*
%TO.C,REF1*%
X56134000Y-145288000D03*
X54259000Y-146238000D03*
X54259000Y-144338000D03*
%TD*%
D19*
%TO.C,R10*%
X137160000Y-99834500D03*
X137160000Y-102934500D03*
%TD*%
D14*
%TO.C,R6*%
X68000000Y-120550000D03*
X68000000Y-117450000D03*
%TD*%
D13*
%TO.C,R1*%
X57450000Y-109000000D03*
X60550000Y-109000000D03*
%TD*%
D11*
%TO.C,C20*%
X117651000Y-167132000D03*
X120601000Y-167132000D03*
%TD*%
%TO.C,C14*%
X123239000Y-138541000D03*
X126189000Y-138541000D03*
%TD*%
D15*
%TO.C,C30*%
X68072000Y-151433000D03*
X68072000Y-154383000D03*
%TD*%
%TO.C,C16*%
X71003044Y-144050000D03*
X71003044Y-147000000D03*
%TD*%
D11*
%TO.C,C17*%
X54405000Y-153162000D03*
X57355000Y-153162000D03*
%TD*%
M02*
