%TF.GenerationSoftware,KiCad,Pcbnew,9.0.4*%
%TF.CreationDate,2026-03-30T01:34:33+02:00*%
%TF.ProjectId,SmartCar_Etudiant,536d6172-7443-4617-925f-457475646961,V1*%
%TF.SameCoordinates,Original*%
%TF.FileFunction,Copper,L1,Top*%
%TF.FilePolarity,Positive*%
%FSLAX46Y46*%
G04 Gerber Fmt 4.6, Leading zero omitted, Abs format (unit mm)*
G04 Created by KiCad (PCBNEW 9.0.4) date 2026-03-30 01:34:33*
%MOMM*%
%LPD*%
G01*
G04 APERTURE LIST*
G04 Aperture macros list*
%AMRoundRect*
0 Rectangle with rounded corners*
0 $1 Rounding radius*
0 $2 $3 $4 $5 $6 $7 $8 $9 X,Y pos of 4 corners*
0 Add a 4 corners polygon primitive as box body*
4,1,4,$2,$3,$4,$5,$6,$7,$8,$9,$2,$3,0*
0 Add four circle primitives for the rounded corners*
1,1,$1+$1,$2,$3*
1,1,$1+$1,$4,$5*
1,1,$1+$1,$6,$7*
1,1,$1+$1,$8,$9*
0 Add four rect primitives between the rounded corners*
20,1,$1+$1,$2,$3,$4,$5,0*
20,1,$1+$1,$4,$5,$6,$7,0*
20,1,$1+$1,$6,$7,$8,$9,0*
20,1,$1+$1,$8,$9,$2,$3,0*%
%AMOutline5P*
0 Free polygon, 5 corners , with rotation*
0 The origin of the aperture is its center*
0 number of corners: always 5*
0 $1 to $10 corner X, Y*
0 $11 Rotation angle, in degrees counterclockwise*
0 create outline with 5 corners*
4,1,5,$1,$2,$3,$4,$5,$6,$7,$8,$9,$10,$1,$2,$11*%
%AMOutline6P*
0 Free polygon, 6 corners , with rotation*
0 The origin of the aperture is its center*
0 number of corners: always 6*
0 $1 to $12 corner X, Y*
0 $13 Rotation angle, in degrees counterclockwise*
0 create outline with 6 corners*
4,1,6,$1,$2,$3,$4,$5,$6,$7,$8,$9,$10,$11,$12,$1,$2,$13*%
%AMOutline7P*
0 Free polygon, 7 corners , with rotation*
0 The origin of the aperture is its center*
0 number of corners: always 7*
0 $1 to $14 corner X, Y*
0 $15 Rotation angle, in degrees counterclockwise*
0 create outline with 7 corners*
4,1,7,$1,$2,$3,$4,$5,$6,$7,$8,$9,$10,$11,$12,$13,$14,$1,$2,$15*%
%AMOutline8P*
0 Free polygon, 8 corners , with rotation*
0 The origin of the aperture is its center*
0 number of corners: always 8*
0 $1 to $16 corner X, Y*
0 $17 Rotation angle, in degrees counterclockwise*
0 create outline with 8 corners*
4,1,8,$1,$2,$3,$4,$5,$6,$7,$8,$9,$10,$11,$12,$13,$14,$15,$16,$1,$2,$17*%
G04 Aperture macros list end*
%TA.AperFunction,ComponentPad*%
%ADD10R,3.048000X3.048000*%
%TD*%
%TA.AperFunction,SMDPad,CuDef*%
%ADD11RoundRect,0.150000X0.150000X-0.725000X0.150000X0.725000X-0.150000X0.725000X-0.150000X-0.725000X0*%
%TD*%
%TA.AperFunction,ComponentPad*%
%ADD12R,1.800000X1.800000*%
%TD*%
%TA.AperFunction,ComponentPad*%
%ADD13C,1.800000*%
%TD*%
%TA.AperFunction,SMDPad,CuDef*%
%ADD14RoundRect,0.250000X-0.325000X-0.650000X0.325000X-0.650000X0.325000X0.650000X-0.325000X0.650000X0*%
%TD*%
%TA.AperFunction,SMDPad,CuDef*%
%ADD15RoundRect,0.250000X0.650000X-0.325000X0.650000X0.325000X-0.650000X0.325000X-0.650000X-0.325000X0*%
%TD*%
%TA.AperFunction,ComponentPad*%
%ADD16R,1.508000X1.508000*%
%TD*%
%TA.AperFunction,ComponentPad*%
%ADD17C,1.508000*%
%TD*%
%TA.AperFunction,SMDPad,CuDef*%
%ADD18RoundRect,0.250000X-0.400000X-0.625000X0.400000X-0.625000X0.400000X0.625000X-0.400000X0.625000X0*%
%TD*%
%TA.AperFunction,SMDPad,CuDef*%
%ADD19RoundRect,0.250000X0.625000X-0.400000X0.625000X0.400000X-0.625000X0.400000X-0.625000X-0.400000X0*%
%TD*%
%TA.AperFunction,SMDPad,CuDef*%
%ADD20RoundRect,0.250000X-0.650000X0.325000X-0.650000X-0.325000X0.650000X-0.325000X0.650000X0.325000X0*%
%TD*%
%TA.AperFunction,SMDPad,CuDef*%
%ADD21RoundRect,0.250000X0.400000X0.625000X-0.400000X0.625000X-0.400000X-0.625000X0.400000X-0.625000X0*%
%TD*%
%TA.AperFunction,ComponentPad*%
%ADD22C,1.400000*%
%TD*%
%TA.AperFunction,SMDPad,CuDef*%
%ADD23R,3.000000X1.600000*%
%TD*%
%TA.AperFunction,ComponentPad*%
%ADD24RoundRect,0.250000X0.845000X-0.620000X0.845000X0.620000X-0.845000X0.620000X-0.845000X-0.620000X0*%
%TD*%
%TA.AperFunction,ComponentPad*%
%ADD25O,2.190000X1.740000*%
%TD*%
%TA.AperFunction,SMDPad,CuDef*%
%ADD26RoundRect,0.300000X-0.300000X-0.300000X0.300000X-0.300000X0.300000X0.300000X-0.300000X0.300000X0*%
%TD*%
%TA.AperFunction,ComponentPad*%
%ADD27R,1.700000X1.700000*%
%TD*%
%TA.AperFunction,ComponentPad*%
%ADD28C,1.700000*%
%TD*%
%TA.AperFunction,ComponentPad*%
%ADD29C,1.600000*%
%TD*%
%TA.AperFunction,ComponentPad*%
%ADD30C,2.630000*%
%TD*%
%TA.AperFunction,SMDPad,CuDef*%
%ADD31RoundRect,0.250000X-0.625000X0.400000X-0.625000X-0.400000X0.625000X-0.400000X0.625000X0.400000X0*%
%TD*%
%TA.AperFunction,ComponentPad*%
%ADD32RoundRect,0.250000X0.620000X0.845000X-0.620000X0.845000X-0.620000X-0.845000X0.620000X-0.845000X0*%
%TD*%
%TA.AperFunction,ComponentPad*%
%ADD33O,1.740000X2.190000*%
%TD*%
%TA.AperFunction,SMDPad,CuDef*%
%ADD34RoundRect,0.250000X0.625000X-0.375000X0.625000X0.375000X-0.625000X0.375000X-0.625000X-0.375000X0*%
%TD*%
%TA.AperFunction,ComponentPad*%
%ADD35RoundRect,0.250000X-0.845000X0.620000X-0.845000X-0.620000X0.845000X-0.620000X0.845000X0.620000X0*%
%TD*%
%TA.AperFunction,SMDPad,CuDef*%
%ADD36RoundRect,0.250000X0.325000X0.650000X-0.325000X0.650000X-0.325000X-0.650000X0.325000X-0.650000X0*%
%TD*%
%TA.AperFunction,ComponentPad*%
%ADD37O,1.600000X1.200000*%
%TD*%
%TA.AperFunction,ComponentPad*%
%ADD38C,1.200000*%
%TD*%
%TA.AperFunction,SMDPad,CuDef*%
%ADD39RoundRect,0.150000X0.725000X0.150000X-0.725000X0.150000X-0.725000X-0.150000X0.725000X-0.150000X0*%
%TD*%
%TA.AperFunction,ComponentPad*%
%ADD40RoundRect,0.250000X-0.620000X-0.845000X0.620000X-0.845000X0.620000X0.845000X-0.620000X0.845000X0*%
%TD*%
%TA.AperFunction,SMDPad,CuDef*%
%ADD41RoundRect,0.150000X-0.587500X-0.150000X0.587500X-0.150000X0.587500X0.150000X-0.587500X0.150000X0*%
%TD*%
%TA.AperFunction,ComponentPad*%
%ADD42C,3.396000*%
%TD*%
%TA.AperFunction,ComponentPad*%
%ADD43Outline8P,-0.952500X0.381000X-0.698500X0.635000X0.698500X0.635000X0.952500X0.381000X0.952500X-0.381000X0.698500X-0.635000X-0.698500X-0.635000X-0.952500X-0.381000X180.000000*%
%TD*%
%TA.AperFunction,ViaPad*%
%ADD44C,0.762000*%
%TD*%
%TA.AperFunction,ViaPad*%
%ADD45C,1.016000*%
%TD*%
%TA.AperFunction,ViaPad*%
%ADD46C,0.600000*%
%TD*%
%TA.AperFunction,Conductor*%
%ADD47C,0.508000*%
%TD*%
%TA.AperFunction,Conductor*%
%ADD48C,0.762000*%
%TD*%
%TA.AperFunction,Conductor*%
%ADD49C,1.016000*%
%TD*%
%TA.AperFunction,Conductor*%
%ADD50C,0.381000*%
%TD*%
G04 APERTURE END LIST*
D10*
%TO.P,RPOT3,1,1*%
%TO.N,Net-(R18-Pad2)*%
X74960000Y-118340000D03*
%TO.P,RPOT3,2,2*%
%TO.N,Net-(C11-Pad1)*%
X77500000Y-128500000D03*
%TO.P,RPOT3,3,3*%
%TO.N,Net-(R19-Pad1)*%
X80040000Y-118340000D03*
%TD*%
D11*
%TO.P,U3,1*%
%TO.N,SENS_AR*%
X96595000Y-148100000D03*
%TO.P,U3,2*%
%TO.N,Net-(C9-Pad1)*%
X97865000Y-148100000D03*
%TO.P,U3,3*%
%TO.N,Net-(JP3-B)*%
X99135000Y-148100000D03*
%TO.P,U3,4*%
%TO.N,GND*%
X100405000Y-148100000D03*
%TO.P,U3,5*%
%TO.N,Net-(R11-Pad2)*%
X100405000Y-142950000D03*
%TO.P,U3,6*%
%TO.N,Net-(R24-Pad2)*%
X99135000Y-142950000D03*
%TO.P,U3,7*%
%TO.N,Net-(Q2-B1)*%
X97865000Y-142950000D03*
%TO.P,U3,8*%
%TO.N,+5V*%
X96595000Y-142950000D03*
%TD*%
D12*
%TO.P,LED3,1,K*%
%TO.N,GND*%
X46482000Y-121666000D03*
D13*
%TO.P,LED3,2,A*%
%TO.N,Net-(LED3-A)*%
X49022000Y-121666000D03*
%TD*%
D14*
%TO.P,C9,1*%
%TO.N,Net-(C9-Pad1)*%
X90727000Y-152146000D03*
%TO.P,C9,2*%
%TO.N,GND*%
X93677000Y-152146000D03*
%TD*%
D15*
%TO.P,C4,1*%
%TO.N,+5V*%
X140081000Y-102859500D03*
%TO.P,C4,2*%
%TO.N,GND*%
X140081000Y-99909500D03*
%TD*%
D16*
%TO.P,BP1,1*%
%TO.N,RESET*%
X71478000Y-165090500D03*
D17*
%TO.P,BP1,2*%
X77978000Y-165090500D03*
%TO.P,BP1,3*%
%TO.N,GND*%
X71478000Y-169590500D03*
%TO.P,BP1,4*%
X77978000Y-169590500D03*
%TD*%
D18*
%TO.P,R21,1*%
%TO.N,Net-(LED4-A)*%
X52298000Y-115824000D03*
%TO.P,R21,2*%
%TO.N,LOIN*%
X55398000Y-115824000D03*
%TD*%
D11*
%TO.P,U2,1*%
%TO.N,PRES*%
X90460000Y-126000000D03*
%TO.P,U2,2*%
%TO.N,Net-(C10-Pad1)*%
X91730000Y-126000000D03*
%TO.P,U2,3*%
%TO.N,Net-(CON1-Pin_3)*%
X93000000Y-126000000D03*
%TO.P,U2,4*%
%TO.N,GND*%
X94270000Y-126000000D03*
%TO.P,U2,5*%
%TO.N,Net-(C11-Pad1)*%
X94270000Y-120850000D03*
%TO.P,U2,6*%
%TO.N,Net-(CON1-Pin_3)*%
X93000000Y-120850000D03*
%TO.P,U2,7*%
%TO.N,LOIN*%
X91730000Y-120850000D03*
%TO.P,U2,8*%
%TO.N,+5V*%
X90460000Y-120850000D03*
%TD*%
D19*
%TO.P,R22,1*%
%TO.N,Net-(LED1-A)*%
X46990000Y-158522000D03*
%TO.P,R22,2*%
%TO.N,+5V*%
X46990000Y-155422000D03*
%TD*%
%TO.P,R40,1*%
%TO.N,GND*%
X124232000Y-171730000D03*
%TO.P,R40,2*%
%TO.N,Net-(R4-Pad1)*%
X124232000Y-168630000D03*
%TD*%
D18*
%TO.P,R5,1*%
%TO.N,+5V*%
X57450000Y-113000000D03*
%TO.P,R5,2*%
%TO.N,SDA*%
X60550000Y-113000000D03*
%TD*%
D20*
%TO.P,C8,1*%
%TO.N,Net-(CON1-Pin_3)*%
X134874000Y-141322000D03*
%TO.P,C8,2*%
%TO.N,GND*%
X134874000Y-144272000D03*
%TD*%
D18*
%TO.P,R24,1*%
%TO.N,GND*%
X109425000Y-153750000D03*
%TO.P,R24,2*%
%TO.N,Net-(R24-Pad2)*%
X112525000Y-153750000D03*
%TD*%
D21*
%TO.P,R2,1*%
%TO.N,Net-(CON6-Pin_2)*%
X132106000Y-111125000D03*
%TO.P,R2,2*%
%TO.N,PHARES_AR*%
X129006000Y-111125000D03*
%TD*%
D22*
%TO.P,R11,1*%
%TO.N,Net-(JP2-C)*%
X94742000Y-134366000D03*
%TO.P,R11,2*%
%TO.N,Net-(R11-Pad2)*%
X102362000Y-134366000D03*
%TD*%
D23*
%TO.P,C18,1*%
%TO.N,+5V*%
X53172000Y-157734000D03*
%TO.P,C18,2*%
%TO.N,GND*%
X57572000Y-157734000D03*
%TD*%
D20*
%TO.P,C23,1*%
%TO.N,CAP_LUM*%
X129500000Y-161025000D03*
%TO.P,C23,2*%
%TO.N,GND*%
X129500000Y-163975000D03*
%TD*%
D10*
%TO.P,RV1,1,1*%
%TO.N,Net-(R24-Pad2)*%
X106934000Y-140447900D03*
%TO.P,RV1,2,2*%
%TO.N,Net-(Q2-B1)*%
X109474000Y-150607900D03*
%TO.P,RV1,3,3*%
X112014000Y-140447900D03*
%TD*%
D24*
%TO.P,CON1,1,Pin_1*%
%TO.N,GND*%
X140462000Y-145288000D03*
D25*
%TO.P,CON1,2,Pin_2*%
%TO.N,+5V*%
X140462000Y-142748000D03*
%TO.P,CON1,3,Pin_3*%
%TO.N,Net-(CON1-Pin_3)*%
X140462000Y-140208000D03*
%TD*%
D26*
%TO.P,D3,1,K*%
%TO.N,+5V*%
X132336000Y-152908000D03*
%TO.P,D3,2,A*%
%TO.N,CAP_LUM*%
X135636000Y-152908000D03*
%TD*%
D27*
%TO.P,JP2,1,A*%
%TO.N,TONE*%
X121158000Y-123698000D03*
D28*
%TO.P,JP2,2,C*%
%TO.N,Net-(JP2-C)*%
X121158000Y-121158000D03*
%TO.P,JP2,3,B*%
%TO.N,Net-(JP2-B)*%
X121158000Y-118618000D03*
%TD*%
D29*
%TO.P,C3,1*%
%TO.N,Net-(U4-THR)*%
X131318000Y-130850000D03*
%TO.P,C3,2*%
%TO.N,GND*%
X131318000Y-135850000D03*
%TD*%
D30*
%TO.P,TP7,1,TP*%
%TO.N,DISTANCE_AV*%
X47500000Y-143500000D03*
%TD*%
D27*
%TO.P,JP1,1,A*%
%TO.N,+5V*%
X116967000Y-126365000D03*
D28*
%TO.P,JP1,2,C*%
%TO.N,Net-(JP1-C)*%
X116967000Y-123825000D03*
%TO.P,JP1,3,B*%
%TO.N,CMD_GENE_AUDIO*%
X116967000Y-121285000D03*
%TD*%
D14*
%TO.P,C15,1*%
%TO.N,+5V*%
X66550000Y-134000000D03*
%TO.P,C15,2*%
%TO.N,GND*%
X69500000Y-134000000D03*
%TD*%
D31*
%TO.P,R30,1*%
%TO.N,Net-(C21-Pad2)*%
X70612000Y-151358000D03*
%TO.P,R30,2*%
%TO.N,Net-(JP3-A)*%
X70612000Y-154458000D03*
%TD*%
D14*
%TO.P,C2,1*%
%TO.N,DISTANCE_AV*%
X47394600Y-139395200D03*
%TO.P,C2,2*%
%TO.N,GND*%
X50344600Y-139395200D03*
%TD*%
D27*
%TO.P,JP5,1,A*%
%TO.N,GND*%
X56896000Y-129500000D03*
D28*
%TO.P,JP5,2,C*%
%TO.N,Net-(JP5-C)*%
X59436000Y-129500000D03*
%TO.P,JP5,3,B*%
%TO.N,+5V*%
X61976000Y-129500000D03*
%TD*%
D32*
%TO.P,CON9,1,Pin_1*%
%TO.N,PWM_AR*%
X105156000Y-100457000D03*
D33*
%TO.P,CON9,2,Pin_2*%
%TO.N,PWM_AV*%
X102616000Y-100457000D03*
%TO.P,CON9,3,Pin_3*%
%TO.N,PWM_GAUCHE*%
X100076000Y-100457000D03*
%TO.P,CON9,4,Pin_4*%
%TO.N,PWM_DROITE*%
X97536000Y-100457000D03*
%TD*%
D22*
%TO.P,R19,1*%
%TO.N,Net-(R19-Pad1)*%
X86190000Y-118500000D03*
%TO.P,R19,2*%
%TO.N,GND*%
X93810000Y-118500000D03*
%TD*%
D30*
%TO.P,TP6,1,TP*%
%TO.N,Net-(JP3-B)*%
X99568000Y-154940000D03*
%TD*%
D11*
%TO.P,U1,1*%
%TO.N,Net-(JP3-A)*%
X73095000Y-148175000D03*
%TO.P,U1,2*%
%TO.N,Net-(C21-Pad2)*%
X74365000Y-148175000D03*
%TO.P,U1,3*%
%TO.N,+2V5*%
X75635000Y-148175000D03*
%TO.P,U1,4*%
%TO.N,GND*%
X76905000Y-148175000D03*
%TO.P,U1,5*%
%TO.N,Net-(CON1-Pin_3)*%
X76905000Y-143025000D03*
%TO.P,U1,6*%
%TO.N,DISTANCE_AR*%
X75635000Y-143025000D03*
%TO.P,U1,7*%
X74365000Y-143025000D03*
%TO.P,U1,8*%
%TO.N,+5V*%
X73095000Y-143025000D03*
%TD*%
D34*
%TO.P,LED1,1,K*%
%TO.N,GND*%
X46990000Y-163706000D03*
%TO.P,LED1,2,A*%
%TO.N,Net-(LED1-A)*%
X46990000Y-160906000D03*
%TD*%
D22*
%TO.P,R9,1*%
%TO.N,Net-(U4-DIS)*%
X109000000Y-135500000D03*
%TO.P,R9,2*%
%TO.N,Net-(U4-THR)*%
X116620000Y-135500000D03*
%TD*%
D27*
%TO.P,JP3,1,A*%
%TO.N,Net-(JP3-A)*%
X70104000Y-160528000D03*
D28*
%TO.P,JP3,2,B*%
%TO.N,Net-(JP3-B)*%
X72644000Y-160528000D03*
%TD*%
D21*
%TO.P,R4,1*%
%TO.N,Net-(R4-Pad1)*%
X120782000Y-170180000D03*
%TO.P,R4,2*%
%TO.N,NIV_BATT*%
X117682000Y-170180000D03*
%TD*%
D20*
%TO.P,C21,1*%
%TO.N,Net-(C21-Pad1)*%
X73000000Y-151500000D03*
%TO.P,C21,2*%
%TO.N,Net-(C21-Pad2)*%
X73000000Y-154450000D03*
%TD*%
%TO.P,C1,1*%
%TO.N,GND*%
X52070000Y-133094200D03*
%TO.P,C1,2*%
%TO.N,+5V*%
X52070000Y-136044200D03*
%TD*%
D21*
%TO.P,R3,1*%
%TO.N,NIV_BATT*%
X114834000Y-167132000D03*
%TO.P,R3,2*%
%TO.N,VIN*%
X111734000Y-167132000D03*
%TD*%
D30*
%TO.P,TP2,1,TP*%
%TO.N,GND*%
X139954000Y-128778000D03*
%TD*%
D24*
%TO.P,CON6,1,Pin_1*%
%TO.N,GND*%
X136652000Y-115824000D03*
D25*
%TO.P,CON6,2,Pin_2*%
%TO.N,Net-(CON6-Pin_2)*%
X136652000Y-113284000D03*
%TD*%
D22*
%TO.P,R17,1*%
%TO.N,Net-(R17-Pad1)*%
X110810000Y-115000000D03*
%TO.P,R17,2*%
%TO.N,GND*%
X103190000Y-115000000D03*
%TD*%
D20*
%TO.P,C13,1*%
%TO.N,+5V*%
X94500000Y-144125000D03*
%TO.P,C13,2*%
%TO.N,GND*%
X94500000Y-147075000D03*
%TD*%
D30*
%TO.P,TP4,1,TP*%
%TO.N,DISTANCE_AR*%
X83058000Y-135128000D03*
%TD*%
D35*
%TO.P,CON10,1,Pin_1*%
%TO.N,GND*%
X47421800Y-130810000D03*
D25*
%TO.P,CON10,2,Pin_2*%
%TO.N,+5V*%
X47421800Y-133350000D03*
%TO.P,CON10,3,Pin_3*%
%TO.N,DISTANCE_AV*%
X47421800Y-135890000D03*
%TD*%
D22*
%TO.P,R13,1*%
%TO.N,GND*%
X80264000Y-148590000D03*
%TO.P,R13,2*%
%TO.N,Net-(R13-Pad2)*%
X80264000Y-140970000D03*
%TD*%
D30*
%TO.P,TP16,1,TP*%
%TO.N,Net-(JP2-B)*%
X128500000Y-123000000D03*
%TD*%
D20*
%TO.P,C5,1*%
%TO.N,RESET*%
X80518000Y-166214000D03*
%TO.P,C5,2*%
%TO.N,GND*%
X80518000Y-169164000D03*
%TD*%
D12*
%TO.P,LED2,1,K*%
%TO.N,Net-(LED2-K)*%
X117602000Y-156972000D03*
D13*
%TO.P,LED2,2,A*%
%TO.N,+5V*%
X120142000Y-156972000D03*
%TD*%
D22*
%TO.P,R18,1*%
%TO.N,+5V*%
X89154000Y-130810000D03*
%TO.P,R18,2*%
%TO.N,Net-(R18-Pad2)*%
X81534000Y-130810000D03*
%TD*%
D14*
%TO.P,C19,1*%
%TO.N,+2V5*%
X55118000Y-149352000D03*
%TO.P,C19,2*%
%TO.N,GND*%
X58068000Y-149352000D03*
%TD*%
D22*
%TO.P,R15,1*%
%TO.N,Net-(LED2-K)*%
X113792000Y-156464000D03*
%TO.P,R15,2*%
%TO.N,SENS_AR*%
X106172000Y-156464000D03*
%TD*%
D27*
%TO.P,JP4,1,A*%
%TO.N,GND*%
X56896000Y-133056000D03*
D28*
%TO.P,JP4,2,C*%
%TO.N,Net-(JP4-C)*%
X59436000Y-133056000D03*
%TO.P,JP4,3,B*%
%TO.N,+5V*%
X61976000Y-133056000D03*
%TD*%
D35*
%TO.P,CON5,1,Pin_1*%
%TO.N,GND*%
X51288000Y-104389000D03*
D25*
%TO.P,CON5,2,Pin_2*%
%TO.N,Net-(CON5-Pin_2)*%
X51288000Y-106929000D03*
%TD*%
D18*
%TO.P,R7,1*%
%TO.N,+5V*%
X124450000Y-157000000D03*
%TO.P,R7,2*%
%TO.N,CAP_LUM*%
X127550000Y-157000000D03*
%TD*%
D27*
%TO.P,J6,1,Pin_1*%
%TO.N,PRES*%
X94690000Y-111740000D03*
D28*
%TO.P,J6,2,Pin_2*%
%TO.N,PWM_GAUCHE*%
X97230000Y-111740000D03*
%TO.P,J6,3,Pin_3*%
%TO.N,PWM_AR*%
X99770000Y-111740000D03*
%TO.P,J6,4,Pin_4*%
%TO.N,PWM_AV*%
X102310000Y-111740000D03*
%TO.P,J6,5,Pin_5*%
%TO.N,PWM_DROITE*%
X104850000Y-111740000D03*
%TO.P,J6,6,Pin_6*%
%TO.N,PHARES_AR*%
X107390000Y-111740000D03*
%TO.P,J6,7,Pin_7*%
%TO.N,unconnected-(J6-Pin_7-Pad7)*%
X109930000Y-111740000D03*
%TO.P,J6,8,Pin_8*%
%TO.N,unconnected-(J6-Pin_8-Pad8)*%
X112470000Y-111740000D03*
%TD*%
D22*
%TO.P,R12,1*%
%TO.N,GND*%
X102870000Y-150876000D03*
%TO.P,R12,2*%
%TO.N,Net-(R11-Pad2)*%
X102870000Y-143256000D03*
%TD*%
D30*
%TO.P,TP12,1,TP*%
%TO.N,SDA*%
X74500000Y-138500000D03*
%TD*%
D19*
%TO.P,R25,1*%
%TO.N,DISTANCE_AR*%
X75500000Y-154458000D03*
%TO.P,R25,2*%
%TO.N,Net-(C21-Pad1)*%
X75500000Y-151358000D03*
%TD*%
D36*
%TO.P,C10,1*%
%TO.N,Net-(C10-Pad1)*%
X100475000Y-128500000D03*
%TO.P,C10,2*%
%TO.N,GND*%
X97525000Y-128500000D03*
%TD*%
D37*
%TO.P,Q2,1,E1*%
%TO.N,V_AUDIO*%
X129761961Y-106139961D03*
D38*
%TO.P,Q2,2,B1*%
%TO.N,Net-(Q2-B1)*%
X131031961Y-107409961D03*
%TO.P,Q2,3,C1*%
%TO.N,+5V*%
X132301961Y-106139961D03*
%TD*%
D21*
%TO.P,R23,1*%
%TO.N,+2V5*%
X52604000Y-149352000D03*
%TO.P,R23,2*%
%TO.N,+5V*%
X49504000Y-149352000D03*
%TD*%
D30*
%TO.P,TP18,1,TP*%
%TO.N,Net-(Q2-B1)*%
X117729000Y-142875000D03*
%TD*%
%TO.P,TP5,1,TP*%
%TO.N,Net-(JP3-A)*%
X78740000Y-153162000D03*
%TD*%
%TO.P,TP1,1,TP*%
%TO.N,Net-(CON1-Pin_3)*%
X139954000Y-123952000D03*
%TD*%
D27*
%TO.P,JP6,1,A*%
%TO.N,GND*%
X56896000Y-125944000D03*
D28*
%TO.P,JP6,2,C*%
%TO.N,Net-(JP6-C)*%
X59436000Y-125944000D03*
%TO.P,JP6,3,B*%
%TO.N,+5V*%
X61976000Y-125944000D03*
%TD*%
D22*
%TO.P,R8,1*%
%TO.N,+5V*%
X108880000Y-133000000D03*
%TO.P,R8,2*%
%TO.N,Net-(U4-DIS)*%
X116500000Y-133000000D03*
%TD*%
D20*
%TO.P,C12,1*%
%TO.N,+5V*%
X88365000Y-121950000D03*
%TO.P,C12,2*%
%TO.N,GND*%
X88365000Y-124900000D03*
%TD*%
D39*
%TO.P,U5,1,SDA*%
%TO.N,SDA*%
X70750000Y-131900000D03*
%TO.P,U5,2,SCL*%
%TO.N,SCL*%
X70750000Y-130630000D03*
%TO.P,U5,3,Alert*%
%TO.N,unconnected-(U5-Alert-Pad3)*%
X70750000Y-129360000D03*
%TO.P,U5,4,GND*%
%TO.N,GND*%
X70750000Y-128090000D03*
%TO.P,U5,5,A2*%
%TO.N,Net-(JP6-C)*%
X65600000Y-128090000D03*
%TO.P,U5,6,A1*%
%TO.N,Net-(JP5-C)*%
X65600000Y-129360000D03*
%TO.P,U5,7,A0*%
%TO.N,Net-(JP4-C)*%
X65600000Y-130630000D03*
%TO.P,U5,8,V_{DD}*%
%TO.N,+5V*%
X65600000Y-131900000D03*
%TD*%
D18*
%TO.P,R20,1*%
%TO.N,Net-(LED3-A)*%
X52298000Y-118618000D03*
%TO.P,R20,2*%
%TO.N,PRES*%
X55398000Y-118618000D03*
%TD*%
D10*
%TO.P,RPOT1,1,1*%
%TO.N,Net-(R13-Pad2)*%
X84578956Y-140716000D03*
%TO.P,RPOT1,2,2*%
%TO.N,Net-(C9-Pad1)*%
X87118956Y-150876000D03*
%TO.P,RPOT1,3,3*%
%TO.N,Net-(R14-Pad1)*%
X89658956Y-140716000D03*
%TD*%
D15*
%TO.P,C6,1*%
%TO.N,GND*%
X132384800Y-144272000D03*
%TO.P,C6,2*%
%TO.N,+5V*%
X132384800Y-141322000D03*
%TD*%
D30*
%TO.P,TP3,1,TP*%
%TO.N,+5V*%
X139954000Y-133604000D03*
%TD*%
D40*
%TO.P,CON3,1,Pin_1*%
%TO.N,GND*%
X92202000Y-165354000D03*
D33*
%TO.P,CON3,2,Pin_2*%
%TO.N,VIN*%
X94742000Y-165354000D03*
%TD*%
D32*
%TO.P,CON8,1,Pin_1*%
%TO.N,GND*%
X122682000Y-100457000D03*
D33*
%TO.P,CON8,2,Pin_2*%
%TO.N,V_AUDIO*%
X120142000Y-100457000D03*
%TO.P,CON8,3,Pin_3*%
%TO.N,+5V*%
X117602000Y-100457000D03*
%TD*%
D22*
%TO.P,R16,1*%
%TO.N,+5V*%
X90190000Y-116000000D03*
%TO.P,R16,2*%
%TO.N,Net-(R16-Pad2)*%
X97810000Y-116000000D03*
%TD*%
D26*
%TO.P,D2,1,K*%
%TO.N,+3.3V*%
X111762000Y-170180000D03*
%TO.P,D2,2,A*%
%TO.N,NIV_BATT*%
X115062000Y-170180000D03*
%TD*%
D32*
%TO.P,CON7,1,Pin_1*%
%TO.N,unconnected-(CON7-Pin_1-Pad1)*%
X77724000Y-100584000D03*
D33*
%TO.P,CON7,2,Pin_2*%
%TO.N,+5V*%
X75184000Y-100584000D03*
%TO.P,CON7,3,Pin_3*%
%TO.N,GND*%
X72644000Y-100584000D03*
%TO.P,CON7,4,Pin_4*%
%TO.N,RX_BLUETOOTH*%
X70104000Y-100584000D03*
%TO.P,CON7,5,Pin_5*%
%TO.N,TX_BLUETOOTH*%
X67564000Y-100584000D03*
%TD*%
D30*
%TO.P,TP13,1,TP*%
%TO.N,SCL*%
X76500000Y-132500000D03*
%TD*%
D41*
%TO.P,REF1,1,A*%
%TO.N,GND*%
X56134000Y-145288000D03*
%TO.P,REF1,2,REF*%
%TO.N,+2V5*%
X54259000Y-146238000D03*
%TO.P,REF1,3,K*%
X54259000Y-144338000D03*
%TD*%
D31*
%TO.P,R10,1*%
%TO.N,GND*%
X137160000Y-99834500D03*
%TO.P,R10,2*%
%TO.N,+5V*%
X137160000Y-102934500D03*
%TD*%
D27*
%TO.P,J7,1,Pin_1*%
%TO.N,SCL*%
X67770000Y-111740000D03*
D28*
%TO.P,J7,2,Pin_2*%
%TO.N,SDA*%
X70310000Y-111740000D03*
%TO.P,J7,3,Pin_3*%
%TO.N,unconnected-(J7-Pin_3-Pad3)*%
X72850000Y-111740000D03*
%TO.P,J7,4,Pin_4*%
%TO.N,GND*%
X75390000Y-111740000D03*
%TO.P,J7,5,Pin_5*%
%TO.N,TX_BLUETOOTH*%
X77930000Y-111740000D03*
%TO.P,J7,6,Pin_6*%
%TO.N,RX_BLUETOOTH*%
X80470000Y-111740000D03*
%TO.P,J7,7,Pin_7*%
%TO.N,PHARES_AV*%
X83010000Y-111740000D03*
%TO.P,J7,8,Pin_8*%
%TO.N,TONE*%
X85550000Y-111740000D03*
%TO.P,J7,9,Pin_9*%
%TO.N,CMD_GENE_AUDIO*%
X88090000Y-111740000D03*
%TO.P,J7,10,Pin_10*%
%TO.N,LOIN*%
X90630000Y-111740000D03*
%TD*%
D27*
%TO.P,J4,1,Pin_1*%
%TO.N,unconnected-(J4-Pin_1-Pad1)*%
X112460000Y-160000000D03*
D28*
%TO.P,J4,2,Pin_2*%
%TO.N,NIV_BATT*%
X109920000Y-160000000D03*
%TO.P,J4,3,Pin_3*%
%TO.N,DISTANCE_AR*%
X107380000Y-160000000D03*
%TO.P,J4,4,Pin_4*%
%TO.N,DISTANCE_AV*%
X104840000Y-160000000D03*
%TO.P,J4,5,Pin_5*%
%TO.N,SENS_AR*%
X102300000Y-160000000D03*
%TO.P,J4,6,Pin_6*%
%TO.N,CAP_LUM*%
X99760000Y-160000000D03*
%TD*%
D22*
%TO.P,R14,1*%
%TO.N,Net-(R14-Pad1)*%
X89662000Y-137160000D03*
%TO.P,R14,2*%
%TO.N,+5V*%
X97282000Y-137160000D03*
%TD*%
D19*
%TO.P,R6,1*%
%TO.N,+5V*%
X68000000Y-120550000D03*
%TO.P,R6,2*%
%TO.N,SCL*%
X68000000Y-117450000D03*
%TD*%
D18*
%TO.P,R1,1*%
%TO.N,Net-(CON5-Pin_2)*%
X57450000Y-109000000D03*
%TO.P,R1,2*%
%TO.N,PHARES_AV*%
X60550000Y-109000000D03*
%TD*%
D14*
%TO.P,C20,1*%
%TO.N,NIV_BATT*%
X117651000Y-167132000D03*
%TO.P,C20,2*%
%TO.N,GND*%
X120601000Y-167132000D03*
%TD*%
D10*
%TO.P,RPOT2,1,1*%
%TO.N,Net-(R16-Pad2)*%
X104920000Y-118447900D03*
%TO.P,RPOT2,2,2*%
%TO.N,Net-(C10-Pad1)*%
X107460000Y-128607900D03*
%TO.P,RPOT2,3,3*%
%TO.N,Net-(R17-Pad1)*%
X110000000Y-118447900D03*
%TD*%
D16*
%TO.P,CONN2,1,VBUS*%
%TO.N,+5V*%
X57912000Y-163322000D03*
D17*
%TO.P,CONN2,2,D-*%
%TO.N,unconnected-(CONN2-D--Pad2)*%
X55412000Y-163322000D03*
%TO.P,CONN2,3,D+*%
%TO.N,unconnected-(CONN2-D+-Pad3)*%
X55412000Y-165322000D03*
%TO.P,CONN2,4,GND*%
%TO.N,GND*%
X57912000Y-165322000D03*
D42*
%TO.P,CONN2,5,Shield*%
X50642000Y-168032000D03*
X62682000Y-168032000D03*
%TD*%
D14*
%TO.P,C14,1*%
%TO.N,+5V*%
X123239000Y-138541000D03*
%TO.P,C14,2*%
%TO.N,GND*%
X126189000Y-138541000D03*
%TD*%
D12*
%TO.P,LED4,1,K*%
%TO.N,GND*%
X46482000Y-112776000D03*
D13*
%TO.P,LED4,2,A*%
%TO.N,Net-(LED4-A)*%
X49022000Y-112776000D03*
%TD*%
D30*
%TO.P,TP9,1,TP*%
%TO.N,SENS_AR*%
X96266000Y-154940000D03*
%TD*%
D43*
%TO.P,U4,1,GND*%
%TO.N,GND*%
X128524000Y-135636000D03*
%TO.P,U4,2,TR*%
%TO.N,Net-(U4-THR)*%
X128524000Y-133096000D03*
%TO.P,U4,3,Q*%
%TO.N,Net-(JP2-B)*%
X128524000Y-130556000D03*
%TO.P,U4,4,R*%
%TO.N,Net-(JP1-C)*%
X128524000Y-128016000D03*
%TO.P,U4,5,CV*%
%TO.N,unconnected-(U4-CV-Pad5)*%
X120714000Y-128016000D03*
%TO.P,U4,6,THR*%
%TO.N,Net-(U4-THR)*%
X120714000Y-130556000D03*
%TO.P,U4,7,DIS*%
%TO.N,Net-(U4-DIS)*%
X120714000Y-133096000D03*
%TO.P,U4,8,VCC*%
%TO.N,+5V*%
X120714000Y-135636000D03*
%TD*%
D20*
%TO.P,C30,1*%
%TO.N,Net-(C21-Pad2)*%
X68072000Y-151433000D03*
%TO.P,C30,2*%
%TO.N,Net-(JP3-A)*%
X68072000Y-154383000D03*
%TD*%
D29*
%TO.P,LDR1,1*%
%TO.N,CAP_LUM*%
X136652000Y-156464000D03*
X136652000Y-159064000D03*
%TO.P,LDR1,2*%
%TO.N,GND*%
X136652000Y-161564000D03*
X136652000Y-164164000D03*
%TD*%
D20*
%TO.P,C16,1*%
%TO.N,+5V*%
X71003044Y-144050000D03*
%TO.P,C16,2*%
%TO.N,GND*%
X71003044Y-147000000D03*
%TD*%
D27*
%TO.P,J5,1,Pin_1*%
%TO.N,VIN*%
X94700000Y-160000000D03*
D28*
%TO.P,J5,2,Pin_2*%
%TO.N,GND*%
X92160000Y-160000000D03*
%TO.P,J5,3,Pin_3*%
X89620000Y-160000000D03*
%TO.P,J5,4,Pin_4*%
%TO.N,+5V*%
X87080000Y-160000000D03*
%TO.P,J5,5,Pin_5*%
%TO.N,+3.3V*%
X84540000Y-160000000D03*
%TO.P,J5,6,Pin_6*%
%TO.N,RESET*%
X82000000Y-160000000D03*
%TO.P,J5,7,Pin_7*%
%TO.N,unconnected-(J5-Pin_7-Pad7)*%
X79460000Y-160000000D03*
%TO.P,J5,8,Pin_8*%
%TO.N,unconnected-(J5-Pin_8-Pad8)*%
X76920000Y-160000000D03*
%TD*%
D14*
%TO.P,C17,1*%
%TO.N,+5V*%
X54405000Y-153162000D03*
%TO.P,C17,2*%
%TO.N,GND*%
X57355000Y-153162000D03*
%TD*%
D44*
%TO.N,CAP_LUM*%
X115950000Y-165300000D03*
X125200000Y-160100000D03*
D45*
%TO.N,GND*%
X86106000Y-126238000D03*
X98044000Y-151638000D03*
X91440000Y-149860000D03*
X67818000Y-124587000D03*
X120396000Y-171958000D03*
X125603000Y-144399000D03*
X94488000Y-148844000D03*
X73450000Y-129669800D03*
X100838000Y-150114000D03*
X127400000Y-138550000D03*
X94359785Y-127534800D03*
X53500000Y-139500000D03*
X71247000Y-125730000D03*
X64008000Y-143637000D03*
X95300800Y-151638000D03*
X89800000Y-127534800D03*
X111250000Y-124078000D03*
X142240000Y-106934000D03*
X111832238Y-116282966D03*
X72350000Y-133600000D03*
X68550000Y-147050000D03*
X61722000Y-146558000D03*
X64668400Y-102920800D03*
%TO.N,+5V*%
X90000000Y-119000000D03*
X101075000Y-138975000D03*
X128524000Y-144272000D03*
X68400000Y-144050000D03*
X58400000Y-111250000D03*
X94500000Y-141300000D03*
X86614000Y-121666000D03*
X61722000Y-145034000D03*
X121920000Y-139954000D03*
X87080000Y-166582000D03*
X66500000Y-135000000D03*
X57450000Y-114800000D03*
X121920000Y-143383000D03*
X68500000Y-123000000D03*
X139954000Y-106680000D03*
X128524000Y-146888200D03*
X90460000Y-122805000D03*
D44*
%TO.N,SCL*%
X68000000Y-116500000D03*
%TO.N,SDA*%
X59382500Y-120034800D03*
D46*
X61730000Y-113500000D03*
D44*
%TO.N,Net-(Q2-B1)*%
X109475000Y-147000000D03*
X109369507Y-144068801D03*
%TO.N,Net-(U4-THR)*%
X118500000Y-134000000D03*
X118500000Y-132000000D03*
%TO.N,PWM_DROITE*%
X104850000Y-108550000D03*
%TO.N,PWM_AV*%
X102600000Y-107050000D03*
%TO.N,SENS_AR*%
X96550000Y-149021800D03*
%TO.N,DISTANCE_AR*%
X78000000Y-141850000D03*
X74775000Y-141250000D03*
%TO.N,NIV_BATT*%
X113350000Y-166450000D03*
%TO.N,+2V5*%
X62687200Y-147500000D03*
X60756800Y-147500000D03*
%TO.N,Net-(C21-Pad2)*%
X73979200Y-148322600D03*
X66000000Y-150000000D03*
%TO.N,Net-(JP3-A)*%
X73000000Y-149161800D03*
X70582303Y-153217697D03*
%TO.N,RX_BLUETOOTH*%
X70100000Y-102200000D03*
X80300000Y-107200000D03*
%TO.N,TX_BLUETOOTH*%
X77200000Y-107350000D03*
%TO.N,PRES*%
X84000000Y-121084000D03*
X84000000Y-117500000D03*
%TO.N,LOIN*%
X87890303Y-113459697D03*
%TO.N,PHARES_AR*%
X120150000Y-111150000D03*
X117700000Y-111150000D03*
%TO.N,Net-(CON1-Pin_3)*%
X123350000Y-113250000D03*
X139604201Y-137000000D03*
X97150000Y-117534800D03*
X137500000Y-137000000D03*
%TO.N,Net-(C10-Pad1)*%
X91000000Y-129500000D03*
X92500000Y-132000000D03*
%TO.N,Net-(C11-Pad1)*%
X96400000Y-124965200D03*
%TO.N,Net-(R11-Pad2)*%
X102362000Y-141732000D03*
%TO.N,Net-(R16-Pad2)*%
X102552100Y-118447900D03*
X100000000Y-118000000D03*
%TD*%
D47*
%TO.N,CAP_LUM*%
X129500000Y-158950000D02*
X127550000Y-157000000D01*
X127550000Y-157000000D02*
X127550000Y-157750000D01*
X105060000Y-165300000D02*
X115950000Y-165300000D01*
X129500000Y-161025000D02*
X134691000Y-161025000D01*
X134691000Y-161025000D02*
X136652000Y-159064000D01*
X136652000Y-153924000D02*
X135636000Y-152908000D01*
X127550000Y-157750000D02*
X125200000Y-160100000D01*
X136652000Y-159064000D02*
X136652000Y-156464000D01*
X136652000Y-156464000D02*
X136652000Y-153924000D01*
X129500000Y-161025000D02*
X129500000Y-158950000D01*
X99760000Y-160000000D02*
X105060000Y-165300000D01*
D48*
%TO.N,GND*%
X140081000Y-99822000D02*
X140081000Y-98771000D01*
X136652000Y-161564000D02*
X136652000Y-164164000D01*
X91440000Y-147828000D02*
X92193000Y-147075000D01*
X94792800Y-152146000D02*
X95300800Y-151638000D01*
X132384800Y-144878000D02*
X132384800Y-144272000D01*
X52287800Y-125944000D02*
X48731800Y-129500000D01*
X53289200Y-102311200D02*
X64058800Y-102311200D01*
X95324985Y-128500000D02*
X97525000Y-128500000D01*
X60178000Y-165322000D02*
X60500000Y-165000000D01*
X138684000Y-145288000D02*
X140462000Y-145288000D01*
X46482000Y-121982000D02*
X47421800Y-122921800D01*
X49706000Y-133094200D02*
X47421800Y-130810000D01*
D47*
X100405000Y-148100000D02*
X100431600Y-148126600D01*
D48*
X87027000Y-126238000D02*
X88365000Y-124900000D01*
X60500000Y-165000000D02*
X60500000Y-162000000D01*
X101000000Y-124500000D02*
X101000000Y-120500000D01*
X142240000Y-98298000D02*
X141824000Y-97882000D01*
D47*
X100431600Y-149707600D02*
X100838000Y-150114000D01*
D48*
X50344600Y-139395200D02*
X53395200Y-139395200D01*
X56896000Y-129500000D02*
X48731800Y-129500000D01*
D47*
X76373043Y-146690000D02*
X76908044Y-147225001D01*
D48*
X89620000Y-162772000D02*
X92202000Y-165354000D01*
X70750000Y-128090000D02*
X70750000Y-126227000D01*
X80518000Y-169799000D02*
X80137000Y-170180000D01*
X59766000Y-157734000D02*
X60500000Y-157000000D01*
X124004000Y-171958000D02*
X124232000Y-171730000D01*
X140979600Y-97882000D02*
X140081000Y-98780600D01*
D47*
X58068000Y-149352000D02*
X58068000Y-146068000D01*
D48*
X46482000Y-112776000D02*
X46482000Y-109195000D01*
X46482000Y-109195000D02*
X51288000Y-104389000D01*
X113700000Y-122100000D02*
X113700000Y-118150728D01*
X57468000Y-168032000D02*
X58000000Y-167500000D01*
X135290000Y-97882000D02*
X132715000Y-100457000D01*
X60500000Y-161000000D02*
X60500000Y-158468000D01*
X64240500Y-169590500D02*
X62682000Y-168032000D01*
X125603000Y-144399000D02*
X127000000Y-145796000D01*
X129500000Y-163975000D02*
X136463000Y-163975000D01*
X71247000Y-125730000D02*
X68961000Y-125730000D01*
D47*
X92202000Y-165354000D02*
X92202000Y-165100000D01*
D48*
X47307500Y-166687500D02*
X46990000Y-166370000D01*
X102870000Y-150876000D02*
X105744000Y-153750000D01*
X52679600Y-102971600D02*
X53289200Y-102362000D01*
X131318000Y-145796000D02*
X132384800Y-144729200D01*
X46482000Y-121666000D02*
X46482000Y-121982000D01*
X94500000Y-147075000D02*
X94500000Y-148832000D01*
X64008000Y-144294019D02*
X64008000Y-143637000D01*
X92160000Y-160000000D02*
X89620000Y-160000000D01*
X97450000Y-126000000D02*
X98500000Y-124950000D01*
X93677000Y-152146000D02*
X94792800Y-152146000D01*
X86106000Y-126238000D02*
X87027000Y-126238000D01*
X70750000Y-128090000D02*
X71870200Y-128090000D01*
X99000000Y-118500000D02*
X101000000Y-120500000D01*
X64058800Y-102311200D02*
X64668400Y-102920800D01*
X128738000Y-135850000D02*
X128524000Y-135636000D01*
X103190000Y-115000000D02*
X101000000Y-117190000D01*
X91440000Y-149860000D02*
X91440000Y-147828000D01*
X142240000Y-106934000D02*
X142240000Y-98298000D01*
X59338000Y-153338000D02*
X59338000Y-153162000D01*
D47*
X58068000Y-146068000D02*
X57288000Y-145288000D01*
D48*
X93810000Y-118500000D02*
X99000000Y-118500000D01*
D47*
X100431600Y-148126600D02*
X100431600Y-149707600D01*
D48*
X80137000Y-170180000D02*
X78567500Y-170180000D01*
D47*
X71313044Y-146690000D02*
X76373043Y-146690000D01*
D48*
X46990000Y-164973000D02*
X46990000Y-163706000D01*
X134874000Y-145796000D02*
X138176000Y-145796000D01*
X113700000Y-118150728D02*
X111832238Y-116282966D01*
X47421800Y-122921800D02*
X47421800Y-130810000D01*
X58068000Y-149352000D02*
X60648000Y-149352000D01*
X48731800Y-129500000D02*
X47421800Y-130810000D01*
D47*
X69500000Y-134000000D02*
X71950000Y-134000000D01*
D48*
X50642000Y-168032000D02*
X48652000Y-168032000D01*
X80264000Y-148590000D02*
X85305200Y-153631200D01*
X57912000Y-165322000D02*
X60178000Y-165322000D01*
X57912000Y-165322000D02*
X57912000Y-167412000D01*
X61722000Y-146558000D02*
X61744019Y-146558000D01*
X61500000Y-150000000D02*
X61500000Y-151000000D01*
X52070000Y-133094200D02*
X49706000Y-133094200D01*
X59338000Y-153162000D02*
X57355000Y-153162000D01*
X95324985Y-128500000D02*
X94359785Y-127534800D01*
X46482000Y-112776000D02*
X46482000Y-121666000D01*
X137576000Y-97882000D02*
X137160000Y-98298000D01*
X53395200Y-139395200D02*
X53500000Y-139500000D01*
X60500000Y-154500000D02*
X59338000Y-153338000D01*
X111722000Y-124078000D02*
X113700000Y-122100000D01*
X61722000Y-148278000D02*
X61722000Y-146558000D01*
X60648000Y-149352000D02*
X60852000Y-149352000D01*
D47*
X92202000Y-165100000D02*
X92160000Y-165058000D01*
D48*
X77978000Y-169590500D02*
X64240500Y-169590500D01*
X94500000Y-148832000D02*
X94488000Y-148844000D01*
D47*
X71478000Y-169590500D02*
X64240500Y-169590500D01*
X71003044Y-147000000D02*
X68600000Y-147000000D01*
D48*
X56857800Y-133094200D02*
X56896000Y-133056000D01*
X70750000Y-126227000D02*
X71247000Y-125730000D01*
X97525000Y-125925000D02*
X98500000Y-124950000D01*
X111250000Y-124078000D02*
X111722000Y-124078000D01*
X141824000Y-97882000D02*
X140979600Y-97882000D01*
X93726000Y-152097000D02*
X93677000Y-152146000D01*
X48652000Y-168032000D02*
X47307500Y-166687500D01*
X48006000Y-130810000D02*
X47421800Y-130810000D01*
X133350000Y-145796000D02*
X134874000Y-145796000D01*
X140081000Y-98780600D02*
X140081000Y-99822000D01*
X89620000Y-160000000D02*
X89620000Y-162772000D01*
X137160000Y-98298000D02*
X137160000Y-99834500D01*
D47*
X92160000Y-165058000D02*
X92160000Y-160000000D01*
D48*
X101000000Y-117190000D02*
X101000000Y-120500000D01*
X58000000Y-167500000D02*
X58532000Y-168032000D01*
X134874000Y-144123200D02*
X134874000Y-145796000D01*
X132384800Y-144830800D02*
X133350000Y-145796000D01*
X52070000Y-133094200D02*
X56857800Y-133094200D01*
X68961000Y-125730000D02*
X67818000Y-124587000D01*
X92193000Y-147075000D02*
X94500000Y-147075000D01*
X92191800Y-153631200D02*
X93677000Y-152146000D01*
X92202000Y-160042000D02*
X92160000Y-160000000D01*
X68600000Y-147000000D02*
X68550000Y-147050000D01*
X56896000Y-125944000D02*
X52287800Y-125944000D01*
X140081000Y-98771000D02*
X139192000Y-97882000D01*
X94270000Y-126000000D02*
X97450000Y-126000000D01*
X120396000Y-171958000D02*
X124004000Y-171958000D01*
D47*
X71950000Y-134000000D02*
X72350000Y-133600000D01*
D48*
X125692200Y-170269800D02*
X124232000Y-171730000D01*
X131318000Y-135850000D02*
X128738000Y-135850000D01*
X126189000Y-138541000D02*
X127391000Y-138541000D01*
X100550000Y-124950000D02*
X101000000Y-124500000D01*
X138176000Y-145796000D02*
X138684000Y-145288000D01*
X92202000Y-165354000D02*
X92202000Y-160042000D01*
D47*
X71003044Y-147000000D02*
X71313044Y-146690000D01*
D48*
X58532000Y-168032000D02*
X62682000Y-168032000D01*
X53289200Y-102362000D02*
X53289200Y-102311200D01*
X132715000Y-100457000D02*
X122682000Y-100457000D01*
X57572000Y-157734000D02*
X59766000Y-157734000D01*
X131104000Y-135636000D02*
X131318000Y-135850000D01*
X60648000Y-149352000D02*
X61722000Y-148278000D01*
X57912000Y-167412000D02*
X58000000Y-167500000D01*
D47*
X77978000Y-169590500D02*
X71478000Y-169590500D01*
D48*
X88365000Y-126099800D02*
X88365000Y-124900000D01*
X61500000Y-151000000D02*
X59338000Y-153162000D01*
X98500000Y-124950000D02*
X100550000Y-124950000D01*
X124947078Y-167132000D02*
X125692200Y-167877122D01*
X127391000Y-138541000D02*
X127400000Y-138550000D01*
X125692200Y-167877122D02*
X125692200Y-170269800D01*
X105744000Y-153750000D02*
X109425000Y-153750000D01*
X78567500Y-170180000D02*
X77978000Y-169590500D01*
X80518000Y-169164000D02*
X80518000Y-169799000D01*
X126205000Y-138557000D02*
X126189000Y-138541000D01*
X61744019Y-146558000D02*
X64008000Y-144294019D01*
X46990000Y-166370000D02*
X46990000Y-164973000D01*
D47*
X71870200Y-128090000D02*
X73450000Y-129669800D01*
D48*
X51288000Y-104389000D02*
X52679600Y-102997400D01*
X60500000Y-157000000D02*
X60500000Y-154500000D01*
X120601000Y-167132000D02*
X124947078Y-167132000D01*
D47*
X57288000Y-145288000D02*
X56134000Y-145288000D01*
D48*
X52679600Y-102997400D02*
X52679600Y-102971600D01*
X60500000Y-158468000D02*
X59766000Y-157734000D01*
X136463000Y-163975000D02*
X136652000Y-164164000D01*
X85305200Y-153631200D02*
X92191800Y-153631200D01*
X98044000Y-151638000D02*
X95300800Y-151638000D01*
D47*
X76908044Y-147225001D02*
X76908044Y-148100000D01*
D48*
X60500000Y-162000000D02*
X60500000Y-161000000D01*
X50642000Y-168032000D02*
X57468000Y-168032000D01*
X132384800Y-144878000D02*
X132384800Y-144979600D01*
X89800000Y-127534800D02*
X88365000Y-126099800D01*
X60852000Y-149352000D02*
X61500000Y-150000000D01*
X127000000Y-145796000D02*
X131318000Y-145796000D01*
X137576000Y-97882000D02*
X135290000Y-97882000D01*
X139192000Y-97882000D02*
X137576000Y-97882000D01*
%TO.N,+5V*%
X120142000Y-147633000D02*
X120200000Y-147575000D01*
X138176000Y-104521000D02*
X137795000Y-104521000D01*
X66192244Y-136044200D02*
X52070000Y-136044200D01*
X73098044Y-142950000D02*
X66192244Y-136044200D01*
X51162000Y-153162000D02*
X54405000Y-153162000D01*
X120714000Y-135636000D02*
X120714000Y-137714000D01*
X47148000Y-149352000D02*
X47148000Y-147852000D01*
D47*
X82804000Y-119888000D02*
X87884000Y-119888000D01*
D48*
X124450000Y-154350000D02*
X125892000Y-152908000D01*
X96595000Y-142950000D02*
X95675000Y-142950000D01*
X118618000Y-104648000D02*
X117602000Y-103632000D01*
X140081000Y-102947000D02*
X139750000Y-102947000D01*
X57450000Y-113000000D02*
X57450000Y-112200000D01*
X132301961Y-106139961D02*
X132301961Y-104680039D01*
X120200000Y-147575000D02*
X120200000Y-140625000D01*
X88081000Y-121666000D02*
X88365000Y-121950000D01*
D47*
X87884000Y-119888000D02*
X88365000Y-120369000D01*
D48*
X124422000Y-156972000D02*
X124450000Y-157000000D01*
X66550000Y-134950000D02*
X66500000Y-135000000D01*
X137668000Y-104648000D02*
X138049000Y-104648000D01*
X121920000Y-139954000D02*
X121920000Y-139860000D01*
X139750000Y-102947000D02*
X138176000Y-104521000D01*
X120777000Y-135699000D02*
X120714000Y-135636000D01*
X54030000Y-140970000D02*
X56896000Y-140970000D01*
X131445000Y-152908000D02*
X132336000Y-152908000D01*
X66550000Y-134000000D02*
X66550000Y-134950000D01*
D47*
X65500000Y-132950000D02*
X66550000Y-134000000D01*
D48*
X46990000Y-155422000D02*
X46990000Y-153510000D01*
X133350000Y-142748000D02*
X140462000Y-142748000D01*
D47*
X85598000Y-128524000D02*
X84328000Y-127254000D01*
D48*
X138049000Y-104648000D02*
X132334000Y-104648000D01*
X137668000Y-104648000D02*
X137160000Y-104140000D01*
X90460000Y-122805000D02*
X90460000Y-120850000D01*
X138049000Y-104648000D02*
X138176000Y-104521000D01*
D47*
X65500000Y-131905000D02*
X65500000Y-132950000D01*
D48*
X48500000Y-152000000D02*
X47000000Y-150500000D01*
X47148000Y-147852000D02*
X54030000Y-140970000D01*
X120714000Y-137714000D02*
X121541000Y-138541000D01*
X50000000Y-157000000D02*
X50000000Y-154324000D01*
X47148000Y-149352000D02*
X49504000Y-149352000D01*
X138639001Y-134918999D02*
X138639001Y-140925001D01*
X120142000Y-156972000D02*
X120142000Y-147633000D01*
X68000000Y-120550000D02*
X68000000Y-122500000D01*
X128524000Y-142494000D02*
X128524000Y-144272000D01*
X126936500Y-148399500D02*
X128518500Y-149981500D01*
X57450000Y-112200000D02*
X58400000Y-111250000D01*
X56240000Y-161650000D02*
X50750000Y-161650000D01*
D47*
X84328000Y-127254000D02*
X84328000Y-125730000D01*
D48*
X57912000Y-163322000D02*
X56240000Y-161650000D01*
X46990000Y-153510000D02*
X48500000Y-152000000D01*
D47*
X89154000Y-129032000D02*
X88646000Y-128524000D01*
X89154000Y-130556000D02*
X89154000Y-129032000D01*
D48*
X47000000Y-150500000D02*
X47000000Y-149500000D01*
X53172000Y-157734000D02*
X50734000Y-157734000D01*
X94500000Y-144125000D02*
X94500000Y-141300000D01*
X128447800Y-146888200D02*
X126936500Y-148399500D01*
X140081000Y-106553000D02*
X139954000Y-106680000D01*
X90460000Y-119460000D02*
X90000000Y-119000000D01*
X132301961Y-104680039D02*
X132334000Y-104648000D01*
X132384800Y-141782800D02*
X133350000Y-142748000D01*
X102000000Y-138050000D02*
X101075000Y-138975000D01*
D47*
X82296000Y-120396000D02*
X82804000Y-119888000D01*
D48*
X86614000Y-121666000D02*
X88081000Y-121666000D01*
D47*
X88365000Y-120369000D02*
X88365000Y-121950000D01*
X84328000Y-125730000D02*
X82296000Y-123698000D01*
D48*
X50000000Y-154324000D02*
X50412000Y-153912000D01*
D47*
X96595000Y-137847000D02*
X96595000Y-142950000D01*
D48*
X124450000Y-157000000D02*
X124450000Y-154350000D01*
X95675000Y-142950000D02*
X94500000Y-144125000D01*
X121920000Y-139860000D02*
X123239000Y-138541000D01*
X71003044Y-144050000D02*
X71998044Y-144050000D01*
X139954000Y-133604000D02*
X138639001Y-134918999D01*
X117625000Y-138050000D02*
X102000000Y-138050000D01*
X50412000Y-153912000D02*
X48500000Y-152000000D01*
D47*
X82296000Y-123698000D02*
X82296000Y-120396000D01*
D48*
X50734000Y-157734000D02*
X50000000Y-157000000D01*
X121920000Y-143383000D02*
X126936500Y-148399500D01*
X50750000Y-161650000D02*
X50000000Y-160900000D01*
X140208000Y-103074000D02*
X140081000Y-102947000D01*
X132334000Y-104648000D02*
X118618000Y-104648000D01*
X132384800Y-141322000D02*
X132384800Y-141782800D01*
X138639001Y-140925001D02*
X140462000Y-142748000D01*
X71998044Y-144050000D02*
X73098044Y-142950000D01*
X50000000Y-158468000D02*
X50734000Y-157734000D01*
X90460000Y-120850000D02*
X90460000Y-119460000D01*
X129696000Y-141322000D02*
X128524000Y-142494000D01*
X57450000Y-113000000D02*
X57450000Y-114800000D01*
D47*
X88646000Y-128524000D02*
X85598000Y-128524000D01*
D48*
X125892000Y-152908000D02*
X132336000Y-152908000D01*
X68000000Y-122500000D02*
X68500000Y-123000000D01*
X117602000Y-103632000D02*
X117602000Y-100457000D01*
X56896000Y-140970000D02*
X60960000Y-145034000D01*
X132384800Y-141322000D02*
X129696000Y-141322000D01*
X120200000Y-140625000D02*
X117625000Y-138050000D01*
X137795000Y-104521000D02*
X137668000Y-104648000D01*
X128524000Y-146888200D02*
X128447800Y-146888200D01*
X87080000Y-160000000D02*
X87080000Y-166582000D01*
X71003044Y-144050000D02*
X68400000Y-144050000D01*
X121541000Y-138541000D02*
X123239000Y-138541000D01*
X50412000Y-153912000D02*
X51162000Y-153162000D01*
X50000000Y-160900000D02*
X50000000Y-158468000D01*
X52070000Y-136044200D02*
X50116000Y-136044200D01*
X50116000Y-136044200D02*
X47421800Y-133350000D01*
D47*
X97282000Y-137160000D02*
X96595000Y-137847000D01*
D48*
X60960000Y-145034000D02*
X61722000Y-145034000D01*
X140081000Y-102947000D02*
X140081000Y-106553000D01*
X47000000Y-149500000D02*
X47148000Y-149352000D01*
X128518500Y-149981500D02*
X131445000Y-152908000D01*
X137160000Y-104140000D02*
X137160000Y-102934500D01*
D47*
%TO.N,Net-(JP1-C)*%
X119142000Y-126000000D02*
X126508000Y-126000000D01*
X126508000Y-126000000D02*
X128524000Y-128016000D01*
X116967000Y-123825000D02*
X119142000Y-126000000D01*
%TO.N,SCL*%
X76500000Y-132500000D02*
X75517800Y-131517800D01*
X74635000Y-130635000D02*
X70650000Y-130635000D01*
X68000000Y-117450000D02*
X68000000Y-116500000D01*
X75517800Y-131517800D02*
X75517800Y-124967800D01*
X75517800Y-124967800D02*
X68000000Y-117450000D01*
X76500000Y-132500000D02*
X74635000Y-130635000D01*
%TO.N,SDA*%
X69196386Y-130815668D02*
X70280718Y-131900000D01*
X63118200Y-110431800D02*
X69001800Y-110431800D01*
X61899386Y-120034800D02*
X69196386Y-127331800D01*
X74500000Y-138500000D02*
X74500000Y-134000000D01*
X59382500Y-120034800D02*
X61899386Y-120034800D01*
X61230000Y-113000000D02*
X61730000Y-113500000D01*
X74500000Y-134000000D02*
X72405000Y-131905000D01*
X60550000Y-113000000D02*
X60529702Y-113000000D01*
X63118200Y-110431800D02*
X60550000Y-113000000D01*
X70650000Y-131905000D02*
X72405000Y-131905000D01*
X69001800Y-110431800D02*
X70310000Y-111740000D01*
X60550000Y-113000000D02*
X61230000Y-113000000D01*
X69196386Y-127331800D02*
X69196386Y-130815668D01*
X70280718Y-131900000D02*
X70750000Y-131900000D01*
%TO.N,CMD_GENE_AUDIO*%
X88900000Y-113284000D02*
X88090000Y-112474000D01*
X116967000Y-121285000D02*
X116967000Y-117602000D01*
X112649000Y-113284000D02*
X88900000Y-113284000D01*
X88090000Y-112474000D02*
X88090000Y-111740000D01*
X116967000Y-117602000D02*
X112649000Y-113284000D01*
%TO.N,TONE*%
X107569000Y-98298000D02*
X118745000Y-109474000D01*
X118745000Y-122936000D02*
X119507000Y-123698000D01*
X85550000Y-107363000D02*
X94615000Y-98298000D01*
X94615000Y-98298000D02*
X107569000Y-98298000D01*
X85550000Y-111740000D02*
X85550000Y-107363000D01*
X118745000Y-109474000D02*
X118745000Y-122936000D01*
X119507000Y-123698000D02*
X121158000Y-123698000D01*
%TO.N,Net-(JP2-B)*%
X121158000Y-118618000D02*
X126618000Y-118618000D01*
X126618000Y-118618000D02*
X128500000Y-120500000D01*
X128500000Y-123000000D02*
X130000000Y-124500000D01*
X130000000Y-129080000D02*
X128524000Y-130556000D01*
X130000000Y-124500000D02*
X130000000Y-129080000D01*
X128500000Y-120500000D02*
X128500000Y-123000000D01*
%TO.N,Net-(Q2-B1)*%
X104652182Y-150607900D02*
X109474000Y-150607900D01*
X97865000Y-142950000D02*
X97865000Y-143820718D01*
X109475000Y-144174294D02*
X109369507Y-144068801D01*
X109475000Y-147000000D02*
X109475000Y-144174294D01*
X97865000Y-143820718D02*
X104652182Y-150607900D01*
%TO.N,Net-(U4-THR)*%
X118500000Y-132000000D02*
X118500000Y-131000000D01*
X118500000Y-131000000D02*
X118944000Y-130556000D01*
X118000000Y-135500000D02*
X118500000Y-135000000D01*
X118500000Y-135000000D02*
X118500000Y-134000000D01*
X128524000Y-133096000D02*
X123254000Y-133096000D01*
X130770000Y-130850000D02*
X128524000Y-133096000D01*
X131318000Y-130850000D02*
X130770000Y-130850000D01*
X118944000Y-130556000D02*
X120714000Y-130556000D01*
X116620000Y-135500000D02*
X118000000Y-135500000D01*
X123254000Y-133096000D02*
X120714000Y-130556000D01*
%TO.N,PWM_DROITE*%
X101986809Y-105250000D02*
X99050000Y-105250000D01*
X97536000Y-103736000D02*
X97536000Y-100457000D01*
X104850000Y-108550000D02*
X104850000Y-108113191D01*
X104850000Y-108113191D02*
X101986809Y-105250000D01*
X99050000Y-105250000D02*
X97536000Y-103736000D01*
%TO.N,PWM_AV*%
X102600000Y-107050000D02*
X102600000Y-111450000D01*
X102600000Y-111450000D02*
X102310000Y-111740000D01*
%TO.N,DISTANCE_AV*%
X47394600Y-139395200D02*
X47394600Y-143394600D01*
X47421800Y-139368000D02*
X47394600Y-139395200D01*
X47394600Y-143394600D02*
X47500000Y-143500000D01*
X47421800Y-135890000D02*
X47421800Y-139368000D01*
%TO.N,SENS_AR*%
X96550000Y-148991800D02*
X96595000Y-148946800D01*
X98490000Y-157164000D02*
X96266000Y-154940000D01*
X106172000Y-156464000D02*
X105472000Y-157164000D01*
X96595000Y-148946800D02*
X96595000Y-148100000D01*
X105472000Y-157164000D02*
X98490000Y-157164000D01*
X96550000Y-149021800D02*
X96550000Y-148991800D01*
%TO.N,DISTANCE_AR*%
X75500000Y-155025000D02*
X78351200Y-157876200D01*
X76093201Y-144358200D02*
X77311082Y-144358200D01*
X78350000Y-148950000D02*
X76966800Y-150333200D01*
X76966800Y-150333200D02*
X76966800Y-152991200D01*
X75635000Y-143025000D02*
X75635000Y-143899999D01*
X79105800Y-139080200D02*
X83058000Y-135128000D01*
X75500000Y-154458000D02*
X75500000Y-155025000D01*
X75635000Y-143899999D02*
X76093201Y-144358200D01*
X78351200Y-157876200D02*
X105256200Y-157876200D01*
X76966800Y-152991200D02*
X75500000Y-154458000D01*
X74365000Y-143025000D02*
X74365000Y-141660000D01*
X78000000Y-141850000D02*
X78350000Y-142200000D01*
X77311082Y-144358200D02*
X79105800Y-142563482D01*
X78350000Y-142200000D02*
X78350000Y-148950000D01*
X105256200Y-157876200D02*
X107380000Y-160000000D01*
X79105800Y-142563482D02*
X79105800Y-139080200D01*
X74365000Y-141660000D02*
X74775000Y-141250000D01*
X75635000Y-143025000D02*
X74365000Y-143025000D01*
%TO.N,NIV_BATT*%
X115062000Y-170180000D02*
X115062000Y-167360000D01*
X114834000Y-167132000D02*
X117651000Y-167132000D01*
X115062000Y-170180000D02*
X117682000Y-170180000D01*
X114834000Y-167132000D02*
X114032000Y-167132000D01*
X115062000Y-167360000D02*
X114834000Y-167132000D01*
X114032000Y-167132000D02*
X113350000Y-166450000D01*
D49*
%TO.N,VIN*%
X94742000Y-160042000D02*
X94700000Y-160000000D01*
D48*
X94742000Y-165354000D02*
X94742000Y-165862000D01*
D49*
X94742000Y-165354000D02*
X96520000Y-167132000D01*
X94742000Y-165354000D02*
X94742000Y-160042000D01*
X96520000Y-167132000D02*
X111734000Y-167132000D01*
D47*
%TO.N,RESET*%
X77978000Y-165090500D02*
X80781500Y-165090500D01*
X77978000Y-165090500D02*
X80264000Y-165090500D01*
X82000000Y-160000000D02*
X82000000Y-163872000D01*
X71478000Y-165090500D02*
X77978000Y-165090500D01*
X80781500Y-165090500D02*
X80518000Y-165354000D01*
X80781500Y-165090500D02*
X81026000Y-164846000D01*
X82000000Y-163872000D02*
X82000000Y-163830000D01*
D50*
X81026000Y-164846000D02*
X82000000Y-163872000D01*
D47*
X80518000Y-165354000D02*
X80518000Y-166214000D01*
D50*
X82000000Y-163830000D02*
X82000000Y-160000000D01*
D47*
X80781500Y-165090500D02*
X82000000Y-163872000D01*
D48*
%TO.N,+3.3V*%
X84540000Y-160000000D02*
X84540000Y-166455000D01*
X88265000Y-170180000D02*
X111762000Y-170180000D01*
X84540000Y-166455000D02*
X88265000Y-170180000D01*
D47*
%TO.N,PHARES_AV*%
X80270000Y-109000000D02*
X83010000Y-111740000D01*
X60550000Y-109000000D02*
X80270000Y-109000000D01*
%TO.N,+2V5*%
X52162000Y-144338000D02*
X51500000Y-145000000D01*
X52000000Y-147500000D02*
X54000000Y-147500000D01*
X51500000Y-145000000D02*
X51500000Y-146000000D01*
X54259000Y-144338000D02*
X52162000Y-144338000D01*
X57594800Y-144338000D02*
X54259000Y-144338000D01*
X54000000Y-149352000D02*
X55118000Y-149352000D01*
X54259000Y-146238000D02*
X51738000Y-146238000D01*
X75638044Y-149361956D02*
X75000000Y-150000000D01*
X51500000Y-146000000D02*
X51500000Y-147000000D01*
X66000000Y-147500000D02*
X62687200Y-147500000D01*
X75000000Y-150000000D02*
X68500000Y-150000000D01*
X54000000Y-147500000D02*
X54000000Y-149352000D01*
X51738000Y-146238000D02*
X51500000Y-146000000D01*
X52604000Y-149352000D02*
X54000000Y-149352000D01*
X75638044Y-148100000D02*
X75638044Y-149361956D01*
X60756800Y-147500000D02*
X57594800Y-144338000D01*
X68500000Y-150000000D02*
X66000000Y-147500000D01*
X51500000Y-147000000D02*
X52000000Y-147500000D01*
%TO.N,Net-(C21-Pad2)*%
X74048282Y-148391682D02*
X74076362Y-148391682D01*
X67433000Y-151433000D02*
X66000000Y-150000000D01*
X70537000Y-151433000D02*
X70612000Y-151358000D01*
X70612000Y-152062000D02*
X73000000Y-154450000D01*
X68072000Y-151433000D02*
X67433000Y-151433000D01*
X74076362Y-148391682D02*
X74368044Y-148100000D01*
X68072000Y-151433000D02*
X70537000Y-151433000D01*
X73979200Y-148322600D02*
X74048282Y-148391682D01*
X70612000Y-151358000D02*
X70612000Y-152062000D01*
%TO.N,Net-(JP3-A)*%
X70612000Y-160020000D02*
X70104000Y-160528000D01*
X73098044Y-148100000D02*
X73098044Y-149063756D01*
X73098044Y-149063756D02*
X73000000Y-149161800D01*
X70612000Y-154458000D02*
X70612000Y-160020000D01*
X70612000Y-154458000D02*
X68147000Y-154458000D01*
X70582303Y-154428303D02*
X70612000Y-154458000D01*
X68147000Y-154458000D02*
X68072000Y-154383000D01*
X70582303Y-153217697D02*
X70582303Y-154428303D01*
%TO.N,RX_BLUETOOTH*%
X70100000Y-103450000D02*
X71700000Y-105050000D01*
X78150000Y-105050000D02*
X80300000Y-107200000D01*
X76500000Y-105050000D02*
X78150000Y-105050000D01*
X70100000Y-102200000D02*
X70100000Y-103450000D01*
X71700000Y-105050000D02*
X76500000Y-105050000D01*
%TO.N,TX_BLUETOOTH*%
X67564000Y-103636000D02*
X67564000Y-100584000D01*
X76200000Y-106350000D02*
X70250000Y-106350000D01*
X70250000Y-106350000D02*
X67600000Y-103700000D01*
X77200000Y-107350000D02*
X76200000Y-106350000D01*
%TO.N,PRES*%
X61722000Y-115443000D02*
X58547000Y-118618000D01*
X85899200Y-122983200D02*
X88431672Y-122983200D01*
X84000000Y-121084000D02*
X85899200Y-122983200D01*
X81943000Y-115443000D02*
X84000000Y-117500000D01*
X88431672Y-122983200D02*
X90460000Y-125011528D01*
X90460000Y-125011528D02*
X90460000Y-126000000D01*
X72644000Y-115443000D02*
X81943000Y-115443000D01*
X58547000Y-118618000D02*
X55398000Y-118618000D01*
X72644000Y-115443000D02*
X61722000Y-115443000D01*
%TO.N,LOIN*%
X87282858Y-114730800D02*
X87651029Y-115098971D01*
X60333798Y-115824000D02*
X61426997Y-114730800D01*
X87282858Y-114730800D02*
X87282858Y-114067142D01*
X91730000Y-119177943D02*
X87651029Y-115098971D01*
X91730000Y-120850000D02*
X91730000Y-119177943D01*
X61426997Y-114730800D02*
X87282858Y-114730800D01*
X87282858Y-114067142D02*
X87890303Y-113459697D01*
X55398000Y-115824000D02*
X60333798Y-115824000D01*
%TO.N,Net-(JP4-C)*%
X64000000Y-134500000D02*
X64000000Y-131260001D01*
X64000000Y-131260001D02*
X64625001Y-130635000D01*
X59436000Y-134641000D02*
X60000000Y-135205000D01*
X60000000Y-135205000D02*
X63295000Y-135205000D01*
X64625001Y-130635000D02*
X65500000Y-130635000D01*
X59436000Y-133056000D02*
X59436000Y-134641000D01*
X63295000Y-135205000D02*
X64000000Y-134500000D01*
%TO.N,Net-(JP5-C)*%
X60744200Y-128191800D02*
X59436000Y-129500000D01*
X62517875Y-128191800D02*
X60744200Y-128191800D01*
X63691075Y-129365000D02*
X62517875Y-128191800D01*
X65500000Y-129365000D02*
X63691075Y-129365000D01*
%TO.N,Net-(JP6-C)*%
X63500000Y-123500000D02*
X65500000Y-125500000D01*
X59436000Y-125944000D02*
X59436000Y-124064000D01*
X59436000Y-124064000D02*
X60000000Y-123500000D01*
X60000000Y-123500000D02*
X63500000Y-123500000D01*
X65500000Y-125500000D02*
X65500000Y-128095000D01*
%TO.N,Net-(LED1-A)*%
X46990000Y-160906000D02*
X46990000Y-158522000D01*
%TO.N,Net-(LED2-K)*%
X113792000Y-156464000D02*
X114378000Y-157050000D01*
X117782000Y-156972000D02*
X117602000Y-156972000D01*
X117524000Y-157050000D02*
X117602000Y-156972000D01*
X114378000Y-157050000D02*
X117524000Y-157050000D01*
%TO.N,Net-(LED3-A)*%
X52298000Y-118618000D02*
X52070000Y-118618000D01*
X52070000Y-118618000D02*
X49022000Y-121666000D01*
%TO.N,Net-(LED4-A)*%
X49250000Y-112776000D02*
X52298000Y-115824000D01*
X49022000Y-112776000D02*
X49250000Y-112776000D01*
%TO.N,Net-(U4-DIS)*%
X116500000Y-133000000D02*
X120618000Y-133000000D01*
X115000000Y-134500000D02*
X116500000Y-133000000D01*
X109000000Y-135500000D02*
X110000000Y-134500000D01*
X110000000Y-134500000D02*
X115000000Y-134500000D01*
%TO.N,PHARES_AR*%
X120175000Y-111125000D02*
X120150000Y-111150000D01*
X107390000Y-108860000D02*
X107390000Y-111740000D01*
X117000000Y-111150000D02*
X113650000Y-107800000D01*
X113650000Y-107800000D02*
X108450000Y-107800000D01*
X129006000Y-111125000D02*
X120175000Y-111125000D01*
X117700000Y-111150000D02*
X117000000Y-111150000D01*
X108450000Y-107800000D02*
X107390000Y-108860000D01*
%TO.N,Net-(CON1-Pin_3)*%
X93000000Y-120850000D02*
X92651800Y-120501800D01*
X143000000Y-126998000D02*
X139954000Y-123952000D01*
X93000000Y-120850000D02*
X93000000Y-126000000D01*
X76908044Y-137091956D02*
X81500000Y-132500000D01*
X134874000Y-141322000D02*
X134874000Y-138126000D01*
X139924000Y-137000000D02*
X139604201Y-137000000D01*
X81500000Y-132500000D02*
X90000000Y-132500000D01*
X134052000Y-123952000D02*
X139954000Y-123952000D01*
X136000000Y-137000000D02*
X137500000Y-137000000D01*
X143000000Y-137670000D02*
X143000000Y-126998000D01*
X76908044Y-142950000D02*
X76908044Y-137091956D01*
X134874000Y-138126000D02*
X135000000Y-138000000D01*
X93000000Y-129500000D02*
X93000000Y-126000000D01*
X90000000Y-132500000D02*
X93000000Y-129500000D01*
X123350000Y-113250000D02*
X134052000Y-123952000D01*
X140462000Y-137538000D02*
X140462000Y-140208000D01*
X96957000Y-117341800D02*
X97150000Y-117534800D01*
X93330257Y-117341800D02*
X96957000Y-117341800D01*
X140462000Y-137538000D02*
X139924000Y-137000000D01*
X92651800Y-120501800D02*
X92651800Y-118020257D01*
X135000000Y-138000000D02*
X136000000Y-137000000D01*
X140462000Y-140208000D02*
X143000000Y-137670000D01*
X92651800Y-118020257D02*
X93330257Y-117341800D01*
%TO.N,Net-(CON6-Pin_2)*%
X134493000Y-111125000D02*
X136652000Y-113284000D01*
X132106000Y-111125000D02*
X134493000Y-111125000D01*
%TO.N,Net-(CON5-Pin_2)*%
X57450000Y-109000000D02*
X53359000Y-109000000D01*
X53359000Y-109000000D02*
X51288000Y-106929000D01*
%TO.N,Net-(C9-Pad1)*%
X90727000Y-152146000D02*
X88388956Y-152146000D01*
X93013000Y-149860000D02*
X96979999Y-149860000D01*
X96979999Y-149860000D02*
X97865000Y-148974999D01*
X88388956Y-152146000D02*
X87118956Y-150876000D01*
X90727000Y-152146000D02*
X93013000Y-149860000D01*
X97865000Y-148974999D02*
X97865000Y-148100000D01*
%TO.N,Net-(C10-Pad1)*%
X91730000Y-126000000D02*
X91730000Y-128770000D01*
X107352100Y-128500000D02*
X107460000Y-128607900D01*
X107460000Y-130540000D02*
X107460000Y-128607900D01*
X100475000Y-128500000D02*
X107352100Y-128500000D01*
X92500000Y-132000000D02*
X106000000Y-132000000D01*
X106000000Y-132000000D02*
X107460000Y-130540000D01*
X91730000Y-128770000D02*
X91000000Y-129500000D01*
%TO.N,Net-(C11-Pad1)*%
X96400000Y-121750000D02*
X96400000Y-124965200D01*
X94270000Y-120850000D02*
X95500000Y-120850000D01*
X95500000Y-120850000D02*
X96400000Y-121750000D01*
%TO.N,Net-(C21-Pad1)*%
X75500000Y-151358000D02*
X73142000Y-151358000D01*
X73142000Y-151358000D02*
X73000000Y-151500000D01*
%TO.N,Net-(JP3-B)*%
X99161600Y-148126600D02*
X99135000Y-148100000D01*
X99568000Y-154940000D02*
X99161600Y-154533600D01*
X99161600Y-154533600D02*
X99161600Y-148126600D01*
%TO.N,Net-(R4-Pad1)*%
X122682000Y-170180000D02*
X124232000Y-168630000D01*
X120782000Y-170180000D02*
X122682000Y-170180000D01*
%TO.N,Net-(R11-Pad2)*%
X102362000Y-141732000D02*
X101144000Y-142950000D01*
X101144000Y-142950000D02*
X100405000Y-142950000D01*
%TO.N,Net-(R13-Pad2)*%
X84578956Y-140716000D02*
X80518000Y-140716000D01*
X84324956Y-140970000D02*
X84578956Y-140716000D01*
X80518000Y-140716000D02*
X80264000Y-140970000D01*
%TO.N,Net-(R14-Pad1)*%
X89658956Y-140716000D02*
X89658956Y-137163044D01*
X89658956Y-137163044D02*
X89662000Y-137160000D01*
%TO.N,Net-(R16-Pad2)*%
X97810000Y-116000000D02*
X98000000Y-116000000D01*
X105036956Y-118447900D02*
X105036956Y-118463044D01*
X104920000Y-118447900D02*
X102552100Y-118447900D01*
X98000000Y-116000000D02*
X100000000Y-118000000D01*
X105036956Y-118463044D02*
X105000000Y-118500000D01*
%TO.N,Net-(R17-Pad1)*%
X110810000Y-117637900D02*
X110000000Y-118447900D01*
X110810000Y-115000000D02*
X110810000Y-117637900D01*
%TO.N,Net-(R18-Pad2)*%
X81534000Y-130556000D02*
X81788000Y-130302000D01*
X81788000Y-130302000D02*
X81788000Y-125168000D01*
X81788000Y-125168000D02*
X74960000Y-118340000D01*
%TO.N,Net-(R19-Pad1)*%
X81589056Y-118500000D02*
X81536956Y-118447900D01*
X86190000Y-118500000D02*
X81589056Y-118500000D01*
%TO.N,Net-(R24-Pad2)*%
X99135000Y-142075001D02*
X100762101Y-140447900D01*
X112525000Y-146038900D02*
X106934000Y-140447900D01*
X112525000Y-153750000D02*
X112525000Y-146038900D01*
X99135000Y-142950000D02*
X99135000Y-142075001D01*
X100762101Y-140447900D02*
X106934000Y-140447900D01*
%TD*%
M02*
