M48
; DRILL file {KiCad 9.0.2} date 2026-01-30T15:37:57+0100
; FORMAT={-:-/ absolute / metric / decimal}
; #@! TF.CreationDate,2026-01-30T15:37:57+01:00
; #@! TF.GenerationSoftware,Kicad,Pcbnew,9.0.2
; #@! TF.FileFunction,Plated,1,2,PTH
FMAT,2
METRIC
; #@! TA.AperFunction,Plated,PTH,ViaDrill
T1C0.300
; #@! TA.AperFunction,Plated,PTH,ViaDrill
T2C0.381
; #@! TA.AperFunction,Plated,PTH,ComponentDrill
T3C0.700
; #@! TA.AperFunction,Plated,PTH,ComponentDrill
T4C0.759
; #@! TA.AperFunction,Plated,PTH,ComponentDrill
T5C0.800
; #@! TA.AperFunction,Plated,PTH,ComponentDrill
T6C0.900
; #@! TA.AperFunction,Plated,PTH,ComponentDrill
T7C1.000
; #@! TA.AperFunction,Plated,PTH,ComponentDrill
T8C1.190
; #@! TA.AperFunction,Plated,PTH,ComponentDrill
T9C1.397
; #@! TA.AperFunction,Plated,PTH,ComponentDrill
T10C1.750
; #@! TA.AperFunction,Plated,PTH,ComponentDrill
T11C2.380
%
G90
G05
T1
X61.73Y-113.5
T2
X53.5Y-139.5
X57.45Y-114.8
X58.4Y-111.25
X59.383Y-120.035
X60.757Y-147.5
X61.722Y-145.034
X61.722Y-146.558
X62.687Y-147.5
X64.008Y-143.637
X64.668Y-102.921
X66.0Y-150.0
X66.5Y-135.0
X67.818Y-124.587
X68.0Y-116.5
X68.4Y-144.05
X68.5Y-123.0
X68.55Y-147.05
X70.1Y-102.2
X70.582Y-153.218
X71.247Y-125.73
X72.35Y-133.6
X73.0Y-149.162
X73.45Y-129.67
X73.979Y-148.323
X74.775Y-141.25
X77.2Y-107.35
X78.0Y-141.85
X80.3Y-107.2
X84.0Y-117.5
X84.0Y-121.084
X86.106Y-126.238
X86.614Y-121.666
X87.08Y-166.582
X87.89Y-113.46
X89.8Y-127.535
X90.0Y-119.0
X90.46Y-122.805
X91.0Y-129.5
X91.44Y-149.86
X92.5Y-132.0
X94.36Y-127.535
X94.488Y-148.844
X94.5Y-141.3
X95.301Y-151.638
X96.4Y-124.965
X96.55Y-149.022
X97.15Y-117.535
X98.044Y-151.638
X100.0Y-118.0
X100.838Y-150.114
X101.075Y-138.975
X102.362Y-141.732
X102.552Y-118.448
X102.6Y-107.05
X104.85Y-108.55
X109.37Y-144.069
X109.475Y-147.0
X111.25Y-124.078
X111.832Y-116.283
X113.35Y-166.45
X115.95Y-165.3
X117.7Y-111.15
X118.5Y-132.0
X118.5Y-134.0
X120.15Y-111.15
X120.396Y-171.958
X121.92Y-139.954
X121.92Y-143.383
X123.35Y-113.25
X125.2Y-160.1
X125.603Y-144.399
X127.4Y-138.55
X128.524Y-144.272
X128.524Y-146.888
X137.5Y-137.0
X139.604Y-137.0
X139.954Y-106.68
X142.24Y-106.934
T3
X80.264Y-140.97
X80.264Y-148.59
X81.534Y-130.81
X86.19Y-118.5
X89.154Y-130.81
X89.662Y-137.16
X90.19Y-116.0
X93.81Y-118.5
X94.742Y-134.366
X97.282Y-137.16
X97.81Y-116.0
X102.362Y-134.366
X102.87Y-143.256
X102.87Y-150.876
X103.19Y-115.0
X106.172Y-156.464
X108.88Y-133.0
X109.0Y-135.5
X110.81Y-115.0
X113.792Y-156.464
X116.5Y-133.0
X116.62Y-135.5
X129.762Y-106.14
X131.032Y-107.41
X132.302Y-106.14
T4
X120.714Y-128.016
X120.714Y-130.556
X120.714Y-133.096
X120.714Y-135.636
X128.524Y-128.016
X128.524Y-130.556
X128.524Y-133.096
X128.524Y-135.636
T5
X131.318Y-130.85
X131.318Y-135.85
X136.652Y-156.464
X136.652Y-159.064
X136.652Y-161.564
X136.652Y-164.164
T6
X46.482Y-112.776
X46.482Y-121.666
X49.022Y-112.776
X49.022Y-121.666
X117.602Y-156.972
X120.142Y-156.972
T7
X55.412Y-163.322
X55.412Y-165.322
X56.896Y-125.944
X56.896Y-129.5
X56.896Y-133.056
X57.912Y-163.322
X57.912Y-165.322
X59.436Y-125.944
X59.436Y-129.5
X59.436Y-133.056
X61.976Y-125.944
X61.976Y-129.5
X61.976Y-133.056
X67.77Y-111.74
X70.104Y-160.528
X70.31Y-111.74
X71.478Y-165.09
X71.478Y-169.59
X72.644Y-160.528
X72.85Y-111.74
X75.39Y-111.74
X76.92Y-160.0
X77.93Y-111.74
X77.978Y-165.09
X77.978Y-169.59
X79.46Y-160.0
X80.47Y-111.74
X82.0Y-160.0
X83.01Y-111.74
X84.54Y-160.0
X85.55Y-111.74
X87.08Y-160.0
X88.09Y-111.74
X89.62Y-160.0
X90.63Y-111.74
X92.16Y-160.0
X94.69Y-111.74
X94.7Y-160.0
X97.23Y-111.74
X99.76Y-160.0
X99.77Y-111.74
X102.3Y-160.0
X102.31Y-111.74
X104.84Y-160.0
X104.85Y-111.74
X107.38Y-160.0
X107.39Y-111.74
X109.92Y-160.0
X109.93Y-111.74
X112.46Y-160.0
X112.47Y-111.74
X116.967Y-121.285
X116.967Y-123.825
X116.967Y-126.365
X121.158Y-118.618
X121.158Y-121.158
X121.158Y-123.698
T8
X47.422Y-130.81
X47.422Y-133.35
X47.422Y-135.89
X51.288Y-104.389
X51.288Y-106.929
X67.564Y-100.584
X70.104Y-100.584
X72.644Y-100.584
X75.184Y-100.584
X77.724Y-100.584
X92.202Y-165.354
X94.742Y-165.354
X97.536Y-100.457
X100.076Y-100.457
X102.616Y-100.457
X105.156Y-100.457
X117.602Y-100.457
X120.142Y-100.457
X122.682Y-100.457
X136.652Y-113.284
X136.652Y-115.824
X140.462Y-140.208
X140.462Y-142.748
X140.462Y-145.288
T9
X74.96Y-118.34
X77.5Y-128.5
X80.04Y-118.34
X84.579Y-140.716
X87.119Y-150.876
X89.659Y-140.716
X104.92Y-118.448
X106.934Y-140.448
X107.46Y-128.608
X109.474Y-150.608
X110.0Y-118.448
X112.014Y-140.448
T10
X47.5Y-143.5
X74.5Y-138.5
X76.5Y-132.5
X78.74Y-153.162
X83.058Y-135.128
X96.266Y-154.94
X99.568Y-154.94
X117.729Y-142.875
X128.5Y-123.0
X139.954Y-123.952
X139.954Y-128.778
X139.954Y-133.604
T11
X50.642Y-168.032
X62.682Y-168.032
M30
