%TF.GenerationSoftware,KiCad,Pcbnew,9.0.4*%
%TF.CreationDate,2026-03-30T01:34:36+02:00*%
%TF.ProjectId,SmartCar_Etudiant,536d6172-7443-4617-925f-457475646961,V1*%
%TF.SameCoordinates,Original*%
%TF.FileFunction,Soldermask,Top*%
%TF.FilePolarity,Negative*%
%FSLAX46Y46*%
G04 Gerber Fmt 4.6, Leading zero omitted, Abs format (unit mm)*
G04 Created by KiCad (PCBNEW 9.0.4) date 2026-03-30 01:34:36*
%MOMM*%
%LPD*%
G01*
G04 APERTURE LIST*
G04 Aperture macros list*
%AMRoundRect*
0 Rectangle with rounded corners*
0 $1 Rounding radius*
0 $2 $3 $4 $5 $6 $7 $8 $9 X,Y pos of 4 corners*
0 Add a 4 corners polygon primitive as box body*
4,1,4,$2,$3,$4,$5,$6,$7,$8,$9,$2,$3,0*
0 Add four circle primitives for the rounded corners*
1,1,$1+$1,$2,$3*
1,1,$1+$1,$4,$5*
1,1,$1+$1,$6,$7*
1,1,$1+$1,$8,$9*
0 Add four rect primitives between the rounded corners*
20,1,$1+$1,$2,$3,$4,$5,0*
20,1,$1+$1,$4,$5,$6,$7,0*
20,1,$1+$1,$6,$7,$8,$9,0*
20,1,$1+$1,$8,$9,$2,$3,0*%
%AMOutline5P*
0 Free polygon, 5 corners , with rotation*
0 The origin of the aperture is its center*
0 number of corners: always 5*
0 $1 to $10 corner X, Y*
0 $11 Rotation angle, in degrees counterclockwise*
0 create outline with 5 corners*
4,1,5,$1,$2,$3,$4,$5,$6,$7,$8,$9,$10,$1,$2,$11*%
%AMOutline6P*
0 Free polygon, 6 corners , with rotation*
0 The origin of the aperture is its center*
0 number of corners: always 6*
0 $1 to $12 corner X, Y*
0 $13 Rotation angle, in degrees counterclockwise*
0 create outline with 6 corners*
4,1,6,$1,$2,$3,$4,$5,$6,$7,$8,$9,$10,$11,$12,$1,$2,$13*%
%AMOutline7P*
0 Free polygon, 7 corners , with rotation*
0 The origin of the aperture is its center*
0 number of corners: always 7*
0 $1 to $14 corner X, Y*
0 $15 Rotation angle, in degrees counterclockwise*
0 create outline with 7 corners*
4,1,7,$1,$2,$3,$4,$5,$6,$7,$8,$9,$10,$11,$12,$13,$14,$1,$2,$15*%
%AMOutline8P*
0 Free polygon, 8 corners , with rotation*
0 The origin of the aperture is its center*
0 number of corners: always 8*
0 $1 to $16 corner X, Y*
0 $17 Rotation angle, in degrees counterclockwise*
0 create outline with 8 corners*
4,1,8,$1,$2,$3,$4,$5,$6,$7,$8,$9,$10,$11,$12,$13,$14,$15,$16,$1,$2,$17*%
G04 Aperture macros list end*
%ADD10R,3.048000X3.048000*%
%ADD11RoundRect,0.150000X0.150000X-0.725000X0.150000X0.725000X-0.150000X0.725000X-0.150000X-0.725000X0*%
%ADD12R,1.800000X1.800000*%
%ADD13C,1.800000*%
%ADD14RoundRect,0.250000X-0.325000X-0.650000X0.325000X-0.650000X0.325000X0.650000X-0.325000X0.650000X0*%
%ADD15RoundRect,0.250000X0.650000X-0.325000X0.650000X0.325000X-0.650000X0.325000X-0.650000X-0.325000X0*%
%ADD16RoundRect,0.102000X-0.754000X-0.754000X0.754000X-0.754000X0.754000X0.754000X-0.754000X0.754000X0*%
%ADD17C,1.712000*%
%ADD18RoundRect,0.250000X-0.400000X-0.625000X0.400000X-0.625000X0.400000X0.625000X-0.400000X0.625000X0*%
%ADD19RoundRect,0.250000X0.625000X-0.400000X0.625000X0.400000X-0.625000X0.400000X-0.625000X-0.400000X0*%
%ADD20RoundRect,0.250000X-0.650000X0.325000X-0.650000X-0.325000X0.650000X-0.325000X0.650000X0.325000X0*%
%ADD21RoundRect,0.250000X0.400000X0.625000X-0.400000X0.625000X-0.400000X-0.625000X0.400000X-0.625000X0*%
%ADD22C,1.400000*%
%ADD23RoundRect,0.102000X1.500000X0.800000X-1.500000X0.800000X-1.500000X-0.800000X1.500000X-0.800000X0*%
%ADD24RoundRect,0.250000X0.845000X-0.620000X0.845000X0.620000X-0.845000X0.620000X-0.845000X-0.620000X0*%
%ADD25O,2.190000X1.740000*%
%ADD26RoundRect,0.300000X-0.300000X-0.300000X0.300000X-0.300000X0.300000X0.300000X-0.300000X0.300000X0*%
%ADD27R,1.700000X1.700000*%
%ADD28C,1.700000*%
%ADD29C,1.600000*%
%ADD30C,2.834000*%
%ADD31RoundRect,0.250000X-0.625000X0.400000X-0.625000X-0.400000X0.625000X-0.400000X0.625000X0.400000X0*%
%ADD32RoundRect,0.250000X0.620000X0.845000X-0.620000X0.845000X-0.620000X-0.845000X0.620000X-0.845000X0*%
%ADD33O,1.740000X2.190000*%
%ADD34RoundRect,0.250000X0.625000X-0.375000X0.625000X0.375000X-0.625000X0.375000X-0.625000X-0.375000X0*%
%ADD35RoundRect,0.250000X-0.845000X0.620000X-0.845000X-0.620000X0.845000X-0.620000X0.845000X0.620000X0*%
%ADD36RoundRect,0.250000X0.325000X0.650000X-0.325000X0.650000X-0.325000X-0.650000X0.325000X-0.650000X0*%
%ADD37O,1.600000X1.200000*%
%ADD38C,1.200000*%
%ADD39RoundRect,0.150000X0.725000X0.150000X-0.725000X0.150000X-0.725000X-0.150000X0.725000X-0.150000X0*%
%ADD40RoundRect,0.250000X-0.620000X-0.845000X0.620000X-0.845000X0.620000X0.845000X-0.620000X0.845000X0*%
%ADD41RoundRect,0.150000X-0.587500X-0.150000X0.587500X-0.150000X0.587500X0.150000X-0.587500X0.150000X0*%
%ADD42C,3.600000*%
%ADD43Outline8P,-0.952500X0.381000X-0.698500X0.635000X0.698500X0.635000X0.952500X0.381000X0.952500X-0.381000X0.698500X-0.635000X-0.698500X-0.635000X-0.952500X-0.381000X180.000000*%
G04 APERTURE END LIST*
D10*
%TO.C,RPOT3*%
X74960000Y-118340000D03*
X77500000Y-128500000D03*
X80040000Y-118340000D03*
%TD*%
D11*
%TO.C,U3*%
X96595000Y-148100000D03*
X97865000Y-148100000D03*
X99135000Y-148100000D03*
X100405000Y-148100000D03*
X100405000Y-142950000D03*
X99135000Y-142950000D03*
X97865000Y-142950000D03*
X96595000Y-142950000D03*
%TD*%
D12*
%TO.C,LED3*%
X46482000Y-121666000D03*
D13*
X49022000Y-121666000D03*
%TD*%
D14*
%TO.C,C9*%
X90727000Y-152146000D03*
X93677000Y-152146000D03*
%TD*%
D15*
%TO.C,C4*%
X140081000Y-102859500D03*
X140081000Y-99909500D03*
%TD*%
D16*
%TO.C,BP1*%
X71478000Y-165090500D03*
D17*
X77978000Y-165090500D03*
X71478000Y-169590500D03*
X77978000Y-169590500D03*
%TD*%
D18*
%TO.C,R21*%
X52298000Y-115824000D03*
X55398000Y-115824000D03*
%TD*%
D11*
%TO.C,U2*%
X90460000Y-126000000D03*
X91730000Y-126000000D03*
X93000000Y-126000000D03*
X94270000Y-126000000D03*
X94270000Y-120850000D03*
X93000000Y-120850000D03*
X91730000Y-120850000D03*
X90460000Y-120850000D03*
%TD*%
D19*
%TO.C,R22*%
X46990000Y-158522000D03*
X46990000Y-155422000D03*
%TD*%
%TO.C,R40*%
X124232000Y-171730000D03*
X124232000Y-168630000D03*
%TD*%
D18*
%TO.C,R5*%
X57450000Y-113000000D03*
X60550000Y-113000000D03*
%TD*%
D20*
%TO.C,C8*%
X134874000Y-141322000D03*
X134874000Y-144272000D03*
%TD*%
D18*
%TO.C,R24*%
X109425000Y-153750000D03*
X112525000Y-153750000D03*
%TD*%
D21*
%TO.C,R2*%
X132106000Y-111125000D03*
X129006000Y-111125000D03*
%TD*%
D22*
%TO.C,R11*%
X94742000Y-134366000D03*
X102362000Y-134366000D03*
%TD*%
D23*
%TO.C,C18*%
X53172000Y-157734000D03*
X57572000Y-157734000D03*
%TD*%
D20*
%TO.C,C23*%
X129500000Y-161025000D03*
X129500000Y-163975000D03*
%TD*%
D10*
%TO.C,RV1*%
X106934000Y-140447900D03*
X109474000Y-150607900D03*
X112014000Y-140447900D03*
%TD*%
D24*
%TO.C,CON1*%
X140462000Y-145288000D03*
D25*
X140462000Y-142748000D03*
X140462000Y-140208000D03*
%TD*%
D26*
%TO.C,D3*%
X132336000Y-152908000D03*
X135636000Y-152908000D03*
%TD*%
D27*
%TO.C,JP2*%
X121158000Y-123698000D03*
D28*
X121158000Y-121158000D03*
X121158000Y-118618000D03*
%TD*%
D29*
%TO.C,C3*%
X131318000Y-130850000D03*
X131318000Y-135850000D03*
%TD*%
D30*
%TO.C,TP7*%
X47500000Y-143500000D03*
%TD*%
D27*
%TO.C,JP1*%
X116967000Y-126365000D03*
D28*
X116967000Y-123825000D03*
X116967000Y-121285000D03*
%TD*%
D14*
%TO.C,C15*%
X66550000Y-134000000D03*
X69500000Y-134000000D03*
%TD*%
D31*
%TO.C,R30*%
X70612000Y-151358000D03*
X70612000Y-154458000D03*
%TD*%
D14*
%TO.C,C2*%
X47394600Y-139395200D03*
X50344600Y-139395200D03*
%TD*%
D27*
%TO.C,JP5*%
X56896000Y-129500000D03*
D28*
X59436000Y-129500000D03*
X61976000Y-129500000D03*
%TD*%
D32*
%TO.C,CON9*%
X105156000Y-100457000D03*
D33*
X102616000Y-100457000D03*
X100076000Y-100457000D03*
X97536000Y-100457000D03*
%TD*%
D22*
%TO.C,R19*%
X86190000Y-118500000D03*
X93810000Y-118500000D03*
%TD*%
D30*
%TO.C,TP6*%
X99568000Y-154940000D03*
%TD*%
D11*
%TO.C,U1*%
X73095000Y-148175000D03*
X74365000Y-148175000D03*
X75635000Y-148175000D03*
X76905000Y-148175000D03*
X76905000Y-143025000D03*
X75635000Y-143025000D03*
X74365000Y-143025000D03*
X73095000Y-143025000D03*
%TD*%
D34*
%TO.C,LED1*%
X46990000Y-163706000D03*
X46990000Y-160906000D03*
%TD*%
D22*
%TO.C,R9*%
X109000000Y-135500000D03*
X116620000Y-135500000D03*
%TD*%
D27*
%TO.C,JP3*%
X70104000Y-160528000D03*
D28*
X72644000Y-160528000D03*
%TD*%
D21*
%TO.C,R4*%
X120782000Y-170180000D03*
X117682000Y-170180000D03*
%TD*%
D20*
%TO.C,C21*%
X73000000Y-151500000D03*
X73000000Y-154450000D03*
%TD*%
%TO.C,C1*%
X52070000Y-133094200D03*
X52070000Y-136044200D03*
%TD*%
D21*
%TO.C,R3*%
X114834000Y-167132000D03*
X111734000Y-167132000D03*
%TD*%
D30*
%TO.C,TP2*%
X139954000Y-128778000D03*
%TD*%
D24*
%TO.C,CON6*%
X136652000Y-115824000D03*
D25*
X136652000Y-113284000D03*
%TD*%
D22*
%TO.C,R17*%
X110810000Y-115000000D03*
X103190000Y-115000000D03*
%TD*%
D20*
%TO.C,C13*%
X94500000Y-144125000D03*
X94500000Y-147075000D03*
%TD*%
D30*
%TO.C,TP4*%
X83058000Y-135128000D03*
%TD*%
D35*
%TO.C,CON10*%
X47421800Y-130810000D03*
D25*
X47421800Y-133350000D03*
X47421800Y-135890000D03*
%TD*%
D22*
%TO.C,R13*%
X80264000Y-148590000D03*
X80264000Y-140970000D03*
%TD*%
D30*
%TO.C,TP16*%
X128500000Y-123000000D03*
%TD*%
D20*
%TO.C,C5*%
X80518000Y-166214000D03*
X80518000Y-169164000D03*
%TD*%
D12*
%TO.C,LED2*%
X117602000Y-156972000D03*
D13*
X120142000Y-156972000D03*
%TD*%
D22*
%TO.C,R18*%
X89154000Y-130810000D03*
X81534000Y-130810000D03*
%TD*%
D14*
%TO.C,C19*%
X55118000Y-149352000D03*
X58068000Y-149352000D03*
%TD*%
D22*
%TO.C,R15*%
X113792000Y-156464000D03*
X106172000Y-156464000D03*
%TD*%
D27*
%TO.C,JP4*%
X56896000Y-133056000D03*
D28*
X59436000Y-133056000D03*
X61976000Y-133056000D03*
%TD*%
D35*
%TO.C,CON5*%
X51288000Y-104389000D03*
D25*
X51288000Y-106929000D03*
%TD*%
D18*
%TO.C,R7*%
X124450000Y-157000000D03*
X127550000Y-157000000D03*
%TD*%
D27*
%TO.C,J6*%
X94690000Y-111740000D03*
D28*
X97230000Y-111740000D03*
X99770000Y-111740000D03*
X102310000Y-111740000D03*
X104850000Y-111740000D03*
X107390000Y-111740000D03*
X109930000Y-111740000D03*
X112470000Y-111740000D03*
%TD*%
D22*
%TO.C,R12*%
X102870000Y-150876000D03*
X102870000Y-143256000D03*
%TD*%
D30*
%TO.C,TP12*%
X74500000Y-138500000D03*
%TD*%
D19*
%TO.C,R25*%
X75500000Y-154458000D03*
X75500000Y-151358000D03*
%TD*%
D36*
%TO.C,C10*%
X100475000Y-128500000D03*
X97525000Y-128500000D03*
%TD*%
D37*
%TO.C,Q2*%
X129761961Y-106139961D03*
D38*
X131031961Y-107409961D03*
X132301961Y-106139961D03*
%TD*%
D21*
%TO.C,R23*%
X52604000Y-149352000D03*
X49504000Y-149352000D03*
%TD*%
D30*
%TO.C,TP18*%
X117729000Y-142875000D03*
%TD*%
%TO.C,TP5*%
X78740000Y-153162000D03*
%TD*%
%TO.C,TP1*%
X139954000Y-123952000D03*
%TD*%
D27*
%TO.C,JP6*%
X56896000Y-125944000D03*
D28*
X59436000Y-125944000D03*
X61976000Y-125944000D03*
%TD*%
D22*
%TO.C,R8*%
X108880000Y-133000000D03*
X116500000Y-133000000D03*
%TD*%
D20*
%TO.C,C12*%
X88365000Y-121950000D03*
X88365000Y-124900000D03*
%TD*%
D39*
%TO.C,U5*%
X70750000Y-131900000D03*
X70750000Y-130630000D03*
X70750000Y-129360000D03*
X70750000Y-128090000D03*
X65600000Y-128090000D03*
X65600000Y-129360000D03*
X65600000Y-130630000D03*
X65600000Y-131900000D03*
%TD*%
D18*
%TO.C,R20*%
X52298000Y-118618000D03*
X55398000Y-118618000D03*
%TD*%
D10*
%TO.C,RPOT1*%
X84578956Y-140716000D03*
X87118956Y-150876000D03*
X89658956Y-140716000D03*
%TD*%
D15*
%TO.C,C6*%
X132384800Y-144272000D03*
X132384800Y-141322000D03*
%TD*%
D30*
%TO.C,TP3*%
X139954000Y-133604000D03*
%TD*%
D40*
%TO.C,CON3*%
X92202000Y-165354000D03*
D33*
X94742000Y-165354000D03*
%TD*%
D32*
%TO.C,CON8*%
X122682000Y-100457000D03*
D33*
X120142000Y-100457000D03*
X117602000Y-100457000D03*
%TD*%
D22*
%TO.C,R16*%
X90190000Y-116000000D03*
X97810000Y-116000000D03*
%TD*%
D26*
%TO.C,D2*%
X111762000Y-170180000D03*
X115062000Y-170180000D03*
%TD*%
D32*
%TO.C,CON7*%
X77724000Y-100584000D03*
D33*
X75184000Y-100584000D03*
X72644000Y-100584000D03*
X70104000Y-100584000D03*
X67564000Y-100584000D03*
%TD*%
D30*
%TO.C,TP13*%
X76500000Y-132500000D03*
%TD*%
D41*
%TO.C,REF1*%
X56134000Y-145288000D03*
X54259000Y-146238000D03*
X54259000Y-144338000D03*
%TD*%
D31*
%TO.C,R10*%
X137160000Y-99834500D03*
X137160000Y-102934500D03*
%TD*%
D27*
%TO.C,J7*%
X67770000Y-111740000D03*
D28*
X70310000Y-111740000D03*
X72850000Y-111740000D03*
X75390000Y-111740000D03*
X77930000Y-111740000D03*
X80470000Y-111740000D03*
X83010000Y-111740000D03*
X85550000Y-111740000D03*
X88090000Y-111740000D03*
X90630000Y-111740000D03*
%TD*%
D27*
%TO.C,J4*%
X112460000Y-160000000D03*
D28*
X109920000Y-160000000D03*
X107380000Y-160000000D03*
X104840000Y-160000000D03*
X102300000Y-160000000D03*
X99760000Y-160000000D03*
%TD*%
D22*
%TO.C,R14*%
X89662000Y-137160000D03*
X97282000Y-137160000D03*
%TD*%
D19*
%TO.C,R6*%
X68000000Y-120550000D03*
X68000000Y-117450000D03*
%TD*%
D18*
%TO.C,R1*%
X57450000Y-109000000D03*
X60550000Y-109000000D03*
%TD*%
D14*
%TO.C,C20*%
X117651000Y-167132000D03*
X120601000Y-167132000D03*
%TD*%
D10*
%TO.C,RPOT2*%
X104920000Y-118447900D03*
X107460000Y-128607900D03*
X110000000Y-118447900D03*
%TD*%
D16*
%TO.C,CONN2*%
X57912000Y-163322000D03*
D17*
X55412000Y-163322000D03*
X55412000Y-165322000D03*
X57912000Y-165322000D03*
D42*
X50642000Y-168032000D03*
X62682000Y-168032000D03*
%TD*%
D14*
%TO.C,C14*%
X123239000Y-138541000D03*
X126189000Y-138541000D03*
%TD*%
D12*
%TO.C,LED4*%
X46482000Y-112776000D03*
D13*
X49022000Y-112776000D03*
%TD*%
D30*
%TO.C,TP9*%
X96266000Y-154940000D03*
%TD*%
D43*
%TO.C,U4*%
X128524000Y-135636000D03*
X128524000Y-133096000D03*
X128524000Y-130556000D03*
X128524000Y-128016000D03*
X120714000Y-128016000D03*
X120714000Y-130556000D03*
X120714000Y-133096000D03*
X120714000Y-135636000D03*
%TD*%
D20*
%TO.C,C30*%
X68072000Y-151433000D03*
X68072000Y-154383000D03*
%TD*%
D29*
%TO.C,LDR1*%
X136652000Y-156464000D03*
X136652000Y-159064000D03*
X136652000Y-161564000D03*
X136652000Y-164164000D03*
%TD*%
D20*
%TO.C,C16*%
X71003044Y-144050000D03*
X71003044Y-147000000D03*
%TD*%
D27*
%TO.C,J5*%
X94700000Y-160000000D03*
D28*
X92160000Y-160000000D03*
X89620000Y-160000000D03*
X87080000Y-160000000D03*
X84540000Y-160000000D03*
X82000000Y-160000000D03*
X79460000Y-160000000D03*
X76920000Y-160000000D03*
%TD*%
D14*
%TO.C,C17*%
X54405000Y-153162000D03*
X57355000Y-153162000D03*
%TD*%
M02*
